<?xml version="1.0" encoding="UTF-8"?>
<svg version="1.1" xmlns="http://www.w3.org/2000/svg" width="494" height="489">
<path d="M0 0 C1.28841797 -0.00128906 2.57683594 -0.00257812 3.90429688 -0.00390625 C4.5769458 -0.00181152 5.24959473 0.0002832 5.94262695 0.00244141 C7.9924259 0.00778259 10.04200484 0.00249704 12.09179688 -0.00390625 C14.02635742 -0.00197266 14.02635742 -0.00197266 16 0 C17.18650146 0.00112793 18.37300293 0.00225586 19.59545898 0.00341797 C22.56640625 0.1328125 22.56640625 0.1328125 25.56640625 1.1328125 C25.59324612 4.11203843 25.61316662 7.09102545 25.62890625 10.0703125 C25.63728516 10.92044922 25.64566406 11.77058594 25.65429688 12.64648438 C25.65751953 13.45537109 25.66074219 14.26425781 25.6640625 15.09765625 C25.66929932 15.846521 25.67453613 16.59538574 25.67993164 17.36694336 C25.56640625 19.1328125 25.56640625 19.1328125 24.56640625 20.1328125 C19.94640625 20.1328125 15.32640625 20.1328125 10.56640625 20.1328125 C10.56640625 30.3628125 10.56640625 40.5928125 10.56640625 51.1328125 C15.18640625 51.1328125 19.80640625 51.1328125 24.56640625 51.1328125 C24.56640625 45.8528125 24.56640625 40.5728125 24.56640625 35.1328125 C29.64358832 32.59422146 35.88994413 34.1328125 41.56640625 34.1328125 C41.23640625 23.5728125 40.90640625 13.0128125 40.56640625 2.1328125 C48.48570192 -0.12984341 48.48570192 -0.12984341 52.87890625 -0.0546875 C53.72066406 -0.04824219 54.56242188 -0.04179688 55.4296875 -0.03515625 C57.56640625 0.1328125 57.56640625 0.1328125 59.56640625 1.1328125 C59.56640625 6.7428125 59.56640625 12.3528125 59.56640625 18.1328125 C64.51640625 18.1328125 69.46640625 18.1328125 74.56640625 18.1328125 C74.56640625 12.5228125 74.56640625 6.9128125 74.56640625 1.1328125 C77.46039411 -0.31418143 79.98907602 0.00296826 83.21875 0 C83.87468643 -0.00095673 84.53062286 -0.00191345 85.20643616 -0.00289917 C86.59424943 -0.00357984 87.98206589 -0.00173342 89.36987305 0.00244141 C91.49209778 0.00778278 93.61411006 0.0024971 95.73632812 -0.00390625 C97.08463588 -0.00324528 98.43294351 -0.00196373 99.78125 0 C101.62384399 0.00169189 101.62384399 0.00169189 103.50366211 0.00341797 C106.56640625 0.1328125 106.56640625 0.1328125 109.56640625 1.1328125 C109.56640625 6.7428125 109.56640625 12.3528125 109.56640625 18.1328125 C114.51640625 18.1328125 119.46640625 18.1328125 124.56640625 18.1328125 C124.56640625 12.5228125 124.56640625 6.9128125 124.56640625 1.1328125 C127.60070302 -0.38433589 130.74242292 -0.01082666 134.06640625 0.0078125 C134.75605469 0.00394531 135.44570313 0.00007813 136.15625 -0.00390625 C141.31307332 0.00614604 141.31307332 0.00614604 143.56640625 1.1328125 C143.59324612 4.11203843 143.61316662 7.09102545 143.62890625 10.0703125 C143.63728516 10.92044922 143.64566406 11.77058594 143.65429688 12.64648438 C143.65913086 13.85981445 143.65913086 13.85981445 143.6640625 15.09765625 C143.67191772 16.22095337 143.67191772 16.22095337 143.67993164 17.36694336 C143.56640625 19.1328125 143.56640625 19.1328125 142.56640625 20.1328125 C139.86985771 20.20600871 137.19949167 20.22523787 134.50390625 20.1953125 C133.74529297 20.19080078 132.98667969 20.18628906 132.20507812 20.18164062 C130.32548754 20.1698193 128.44593726 20.15188328 126.56640625 20.1328125 C126.56640625 24.7528125 126.56640625 29.3728125 126.56640625 34.1328125 C132.17640625 34.1328125 137.78640625 34.1328125 143.56640625 34.1328125 C143.588957 44.93739707 143.60732118 55.74196613 143.61821842 66.54656887 C143.62344732 71.5630372 143.63054508 76.57948865 143.6418457 81.59594727 C143.65267435 86.43290944 143.65868304 91.26985534 143.66128349 96.10682869 C143.66313778 97.95649535 143.66675847 99.80616107 143.67213631 101.65582085 C143.67934645 104.23728264 143.6803972 106.81867632 143.67993164 109.40014648 C143.68352692 110.17266251 143.68712219 110.94517853 143.69082642 111.74110413 C143.68045841 117.01876034 143.68045841 117.01876034 142.56640625 118.1328125 C140.03591223 118.20594817 137.53335788 118.22528777 135.00390625 118.1953125 C133.9375293 118.18854492 133.9375293 118.18854492 132.84960938 118.18164062 C131.08850612 118.16982114 129.32744589 118.15188513 127.56640625 118.1328125 C127.23640625 122.7528125 126.90640625 127.3728125 126.56640625 132.1328125 C132.17640625 132.1328125 137.78640625 132.1328125 143.56640625 132.1328125 C143.56640625 137.7428125 143.56640625 143.3528125 143.56640625 149.1328125 C148.51640625 149.1328125 153.46640625 149.1328125 158.56640625 149.1328125 C158.55480469 147.98941406 158.54320312 146.84601563 158.53125 145.66796875 C158.52187337 144.17708496 158.51277304 142.68619941 158.50390625 141.1953125 C158.49552734 140.44056641 158.48714844 139.68582031 158.47851562 138.90820312 C158.46988184 136.98286937 158.51416292 135.05745669 158.56640625 133.1328125 C159.56640625 132.1328125 159.56640625 132.1328125 161.54689026 132.01255798 C162.41514938 132.01477859 163.28340851 132.01699921 164.17797852 132.01928711 C165.15891983 132.01936264 166.13986115 132.01943817 167.15052795 132.01951599 C168.21718185 132.02467728 169.28383575 132.02983856 170.3828125 132.03515625 C172.01209938 132.03727867 172.01209938 132.03727867 173.67430115 132.03944397 C177.159197 132.04506202 180.64402967 132.05761758 184.12890625 132.0703125 C186.48502512 132.07532517 188.84114499 132.07988848 191.19726562 132.08398438 C196.98700368 132.09503732 202.77669424 132.11231404 208.56640625 132.1328125 C208.56640625 137.7428125 208.56640625 143.3528125 208.56640625 149.1328125 C213.18640625 149.1328125 217.80640625 149.1328125 222.56640625 149.1328125 C222.55480469 147.98941406 222.54320312 146.84601563 222.53125 145.66796875 C222.52187337 144.17708496 222.51277304 142.68619941 222.50390625 141.1953125 C222.49552734 140.44056641 222.48714844 139.68582031 222.47851562 138.90820312 C222.46988184 136.98286937 222.51416292 135.05745669 222.56640625 133.1328125 C222.89640625 132.8028125 223.22640625 132.4728125 223.56640625 132.1328125 C239.73640625 132.1328125 255.90640625 132.1328125 272.56640625 132.1328125 C272.56640625 203.4128125 272.56640625 274.6928125 272.56640625 348.1328125 C266.95640625 348.1328125 261.34640625 348.1328125 255.56640625 348.1328125 C255.56640625 353.0828125 255.56640625 358.0328125 255.56640625 363.1328125 C261.17640625 363.1328125 266.78640625 363.1328125 272.56640625 363.1328125 C272.56640625 374.3528125 272.56640625 385.5728125 272.56640625 397.1328125 C266.95640625 397.1328125 261.34640625 397.1328125 255.56640625 397.1328125 C255.56640625 402.4128125 255.56640625 407.6928125 255.56640625 413.1328125 C244.67640625 413.1328125 233.78640625 413.1328125 222.56640625 413.1328125 C222.56640625 402.5728125 222.56640625 392.0128125 222.56640625 381.1328125 C212.99640625 381.1328125 203.42640625 381.1328125 193.56640625 381.1328125 C193.56640625 385.7528125 193.56640625 390.3728125 193.56640625 395.1328125 C195.17322266 395.11541016 195.17322266 395.11541016 196.8125 395.09765625 C198.20963368 395.08827951 199.60676924 395.07917919 201.00390625 395.0703125 C201.71095703 395.06193359 202.41800781 395.05355469 203.14648438 395.04492188 C204.95334184 395.03627662 206.76028228 395.08061239 208.56640625 395.1328125 C210.38756628 396.95397253 209.69875705 399.43953014 209.703125 401.859375 C209.69925781 402.60960937 209.69539063 403.35984375 209.69140625 404.1328125 C209.69527344 404.88304687 209.69914062 405.63328125 209.703125 406.40625 C209.69301678 412.00620197 209.69301678 412.00620197 208.56640625 413.1328125 C205.72305577 413.23268225 202.90943462 413.27159131 200.06640625 413.2578125 C199.26847656 413.26167969 198.47054688 413.26554687 197.6484375 413.26953125 C191.69301392 413.25942017 191.69301392 413.25942017 190.56640625 412.1328125 C190.49327058 409.60231848 190.47393098 407.09976413 190.50390625 404.5703125 C190.51067383 403.50393555 190.51067383 403.50393555 190.51757812 402.41601562 C190.52939761 400.65491237 190.54733362 398.89385214 190.56640625 397.1328125 C186.27640625 397.1328125 181.98640625 397.1328125 177.56640625 397.1328125 C177.57800781 398.20402344 177.58960938 399.27523438 177.6015625 400.37890625 C177.61093924 401.77603993 177.62003956 403.17317549 177.62890625 404.5703125 C177.63728516 405.27736328 177.64566406 405.98441406 177.65429688 406.71289062 C177.66294213 408.51974809 177.61860636 410.32668853 177.56640625 412.1328125 C176.56640625 413.1328125 176.56640625 413.1328125 174.47203064 413.25306702 C173.08969994 413.2497361 173.08969994 413.2497361 171.67944336 413.24633789 C170.63843979 413.24626236 169.59743622 413.24618683 168.52488708 413.24610901 C167.39261185 413.24094772 166.26033661 413.23578644 165.09375 413.23046875 C163.36458092 413.22834633 163.36458092 413.22834633 161.60047913 413.22618103 C157.90159561 413.22056255 154.20277161 413.20800692 150.50390625 413.1953125 C148.00325608 413.19029988 145.50260496 413.18573656 143.00195312 413.18164062 C136.8567292 413.171436 130.7116347 413.15186419 124.56640625 413.1328125 C124.56640625 397.2928125 124.56640625 381.4528125 124.56640625 365.1328125 C119.61640625 365.1328125 114.66640625 365.1328125 109.56640625 365.1328125 C109.56640625 380.9728125 109.56640625 396.8128125 109.56640625 413.1328125 C92.63603218 413.17292131 92.63603218 413.17292131 85.44335938 413.18164062 C80.52708869 413.18762851 75.61083656 413.19472734 70.69458008 413.20825195 C66.73293797 413.21908275 62.77131573 413.22508974 58.80965996 413.22768974 C57.29492314 413.22954364 55.78018746 413.2331636 54.26545906 413.23854256 C52.15098812 413.24575557 50.03660031 413.24680333 47.92211914 413.24633789 C46.71632706 413.2485585 45.51053497 413.25077911 44.26820374 413.25306702 C41.56640625 413.1328125 41.56640625 413.1328125 40.56640625 412.1328125 C40.56640625 407.1828125 40.56640625 402.2328125 40.56640625 397.1328125 C30.66640625 397.1328125 20.76640625 397.1328125 10.56640625 397.1328125 C10.56640625 402.4128125 10.56640625 407.6928125 10.56640625 413.1328125 C4.29640625 413.1328125 -1.97359375 413.1328125 -8.43359375 413.1328125 C-8.45650463 408.45135539 -8.47643107 403.77009148 -8.48852539 399.08862305 C-8.49356532 397.49486636 -8.50039725 395.90111431 -8.5090332 394.30737305 C-8.52111374 392.02130997 -8.5268253 389.73530783 -8.53125 387.44921875 C-8.53641129 386.73254532 -8.54157257 386.01587189 -8.54689026 385.27748108 C-8.54708638 383.56217578 -8.49551382 381.84699984 -8.43359375 380.1328125 C-7.43359375 379.1328125 -7.43359375 379.1328125 -4.0546875 379.03515625 C-2.66012298 379.04182881 -1.26557632 379.05378718 0.12890625 379.0703125 C1.1952832 379.07708008 1.1952832 379.07708008 2.28320312 379.08398438 C4.04430638 379.09580386 5.80536661 379.11373987 7.56640625 379.1328125 C7.56640625 374.5128125 7.56640625 369.8928125 7.56640625 365.1328125 C5.95958984 365.15021484 5.95958984 365.15021484 4.3203125 365.16796875 C2.92317882 365.17734549 1.52604326 365.18644581 0.12890625 365.1953125 C-0.57814453 365.20369141 -1.28519531 365.21207031 -2.01367188 365.22070312 C-3.82052934 365.22934838 -5.62746978 365.18501261 -7.43359375 365.1328125 C-9.31911905 363.2472872 -8.56606064 360.55512419 -8.5703125 358.05078125 C-8.56644531 357.25285156 -8.56257813 356.45492188 -8.55859375 355.6328125 C-8.56246094 354.83488281 -8.56632812 354.03695313 -8.5703125 353.21484375 C-8.56020142 347.25942017 -8.56020142 347.25942017 -7.43359375 346.1328125 C-2.48359375 346.1328125 2.46640625 346.1328125 7.56640625 346.1328125 C7.56640625 336.2328125 7.56640625 326.3328125 7.56640625 316.1328125 C2.61640625 316.1328125 -2.33359375 316.1328125 -7.43359375 316.1328125 C-8.43359375 315.1328125 -8.43359375 315.1328125 -8.55384827 313.15232849 C-8.55162766 312.28406937 -8.54940704 311.41581024 -8.54711914 310.52124023 C-8.54700584 309.04982826 -8.54700584 309.04982826 -8.54689026 307.5486908 C-8.54172897 306.4820369 -8.53656769 305.415383 -8.53125 304.31640625 C-8.52983505 303.230215 -8.5284201 302.14402374 -8.52696228 301.0249176 C-8.52134423 297.54002175 -8.50878867 294.05518908 -8.49609375 290.5703125 C-8.49108108 288.21419363 -8.48651777 285.85807376 -8.48242188 283.50195312 C-8.47136893 277.71221507 -8.45409221 271.92252451 -8.43359375 266.1328125 C-13.05359375 266.1328125 -17.67359375 266.1328125 -22.43359375 266.1328125 C-22.43359375 271.4128125 -22.43359375 276.6928125 -22.43359375 282.1328125 C-38.60359375 282.1328125 -54.77359375 282.1328125 -71.43359375 282.1328125 C-71.43359375 265.9628125 -71.43359375 249.7928125 -71.43359375 233.1328125 C-76.05359375 233.4628125 -80.67359375 233.7928125 -85.43359375 234.1328125 C-85.42835693 235.51581543 -85.42312012 236.89881836 -85.41772461 238.32373047 C-85.39966256 243.44123694 -85.3881573 248.55874058 -85.37866211 253.67626953 C-85.37362466 255.89372226 -85.36679453 258.11117166 -85.3581543 260.32861328 C-85.34606303 263.51075055 -85.34035965 266.69284401 -85.3359375 269.875 C-85.33077621 270.87087128 -85.32561493 271.86674255 -85.32029724 272.89279175 C-85.32022171 273.81359528 -85.32014618 274.7343988 -85.32006836 275.68310547 C-85.31784775 276.4958493 -85.31562714 277.30859314 -85.31333923 278.14596558 C-85.43359375 280.1328125 -85.43359375 280.1328125 -86.43359375 282.1328125 C-102.93359375 282.1328125 -119.43359375 282.1328125 -136.43359375 282.1328125 C-136.43359375 265.1328125 -136.43359375 265.1328125 -135.43359375 264.1328125 C-133.14207958 264.04490275 -130.84786851 264.02587212 -128.5546875 264.03515625 C-127.29841553 264.03765381 -126.04214355 264.04015137 -124.74780273 264.04272461 C-123.13848877 264.05182861 -121.5291748 264.06093262 -119.87109375 264.0703125 C-114.77671875 264.0909375 -109.68234375 264.1115625 -104.43359375 264.1328125 C-104.43359375 253.9028125 -104.43359375 243.6728125 -104.43359375 233.1328125 C-109.05359375 233.1328125 -113.67359375 233.1328125 -118.43359375 233.1328125 C-118.43359375 238.7428125 -118.43359375 244.3528125 -118.43359375 250.1328125 C-121.21796875 250.1534375 -124.00234375 250.1740625 -126.87109375 250.1953125 C-127.74950928 250.2044165 -128.6279248 250.21352051 -129.53295898 250.22290039 C-131.50005349 250.23004341 -133.46712996 250.18313143 -135.43359375 250.1328125 C-136.43359375 249.1328125 -136.43359375 249.1328125 -136.54711914 247.36694336 C-136.54188232 246.61807861 -136.53664551 245.86921387 -136.53125 245.09765625 C-136.52802734 244.28876953 -136.52480469 243.47988281 -136.52148438 242.64648438 C-136.51310547 241.79634766 -136.50472656 240.94621094 -136.49609375 240.0703125 C-136.49158203 239.21630859 -136.48707031 238.36230469 -136.48242188 237.48242188 C-136.47059748 235.36585587 -136.45266144 233.24932565 -136.43359375 231.1328125 C-131.15359375 231.1328125 -125.87359375 231.1328125 -120.43359375 231.1328125 C-120.43359375 221.2328125 -120.43359375 211.3328125 -120.43359375 201.1328125 C-125.38359375 201.1328125 -130.33359375 201.1328125 -135.43359375 201.1328125 C-137.27042597 199.29598028 -136.56133568 196.34625778 -136.56298828 193.88476562 C-136.5647406 193.23273666 -136.56649292 192.5807077 -136.56829834 191.90892029 C-136.57271579 189.74394097 -136.56977926 187.57904271 -136.56640625 185.4140625 C-136.56707932 183.91573063 -136.56804937 182.41739887 -136.56930542 180.91906738 C-136.57078225 177.77497317 -136.56862833 174.63090733 -136.56396484 171.48681641 C-136.55826755 167.44794711 -136.56154664 163.40914426 -136.56753731 159.3702774 C-136.57114333 156.2751617 -136.57000414 153.18006185 -136.56740952 150.08494568 C-136.56674036 148.59533175 -136.56756827 147.1057164 -136.56988907 145.61610413 C-136.57241628 143.53765015 -136.56857408 141.45930519 -136.56298828 139.38085938 C-136.56219269 138.19584839 -136.56139709 137.0108374 -136.56057739 135.78991699 C-136.43359375 133.1328125 -136.43359375 133.1328125 -135.43359375 132.1328125 C-133.05790855 132.0444158 -130.71150701 132.01750945 -128.3359375 132.03515625 C-127.27264977 132.03727867 -127.27264977 132.03727867 -126.18788147 132.03944397 C-123.91557663 132.04505807 -121.643369 132.05761287 -119.37109375 132.0703125 C-117.83398579 132.07532569 -116.2968763 132.07988891 -114.75976562 132.08398438 C-110.98430708 132.0941828 -107.20905971 132.11375518 -103.43359375 132.1328125 C-103.43359375 137.7428125 -103.43359375 143.3528125 -103.43359375 149.1328125 C-98.81359375 149.1328125 -94.19359375 149.1328125 -89.43359375 149.1328125 C-89.44519531 147.98941406 -89.45679688 146.84601563 -89.46875 145.66796875 C-89.47812663 144.17708496 -89.48722696 142.68619941 -89.49609375 141.1953125 C-89.50447266 140.44056641 -89.51285156 139.68582031 -89.52148438 138.90820312 C-89.53011816 136.98286937 -89.48583708 135.05745669 -89.43359375 133.1328125 C-88.43359375 132.1328125 -88.43359375 132.1328125 -86.66772461 132.01928711 C-85.91885986 132.02452393 -85.16999512 132.02976074 -84.3984375 132.03515625 C-83.58955078 132.03837891 -82.78066406 132.04160156 -81.94726562 132.04492188 C-81.09712891 132.05330078 -80.24699219 132.06167969 -79.37109375 132.0703125 C-78.51708984 132.07482422 -77.66308594 132.07933594 -76.78320312 132.08398438 C-74.66663712 132.09580877 -72.5501069 132.11374481 -70.43359375 132.1328125 C-70.43359375 137.7428125 -70.43359375 143.3528125 -70.43359375 149.1328125 C-60.86359375 149.1328125 -51.29359375 149.1328125 -41.43359375 149.1328125 C-41.43359375 143.5228125 -41.43359375 137.9128125 -41.43359375 132.1328125 C-30.54359375 132.1328125 -19.65359375 132.1328125 -8.43359375 132.1328125 C-8.44519531 127.52441406 -8.45679688 122.91601562 -8.46875 118.16796875 C-8.47385696 115.25585798 -8.47867075 112.34375269 -8.48242188 109.43164062 C-8.48840954 104.8050828 -8.49550779 100.17854468 -8.5090332 95.55200195 C-8.51986475 91.82377849 -8.52587115 88.09557616 -8.52847099 84.36733818 C-8.53032476 82.94191594 -8.53394446 81.51649491 -8.53932381 80.09108162 C-8.54653768 78.10117842 -8.54700183 76.11125416 -8.54711914 74.12133789 C-8.54933975 72.98660538 -8.55156036 71.85187286 -8.55384827 70.68275452 C-8.43359375 68.1328125 -8.43359375 68.1328125 -7.43359375 67.1328125 C-4.73704521 67.05961629 -2.06667917 67.04038713 0.62890625 67.0703125 C1.38751953 67.07482422 2.14613281 67.07933594 2.92773438 67.08398438 C4.80732496 67.0958057 6.68687524 67.11374172 8.56640625 67.1328125 C8.56640625 62.5128125 8.56640625 57.8928125 8.56640625 53.1328125 C2.95640625 53.1328125 -2.65359375 53.1328125 -8.43359375 53.1328125 C-8.43359375 35.9728125 -8.43359375 18.8128125 -8.43359375 1.1328125 C-5.59180635 -0.2880812 -3.1737563 0.00301995 0 0 Z M93.56640625 20.1328125 C93.56640625 24.7528125 93.56640625 29.3728125 93.56640625 34.1328125 C98.18640625 34.1328125 102.80640625 34.1328125 107.56640625 34.1328125 C107.56640625 29.5128125 107.56640625 24.8928125 107.56640625 20.1328125 C102.94640625 20.1328125 98.32640625 20.1328125 93.56640625 20.1328125 Z M59.56640625 37.1328125 C59.56640625 42.4128125 59.56640625 47.6928125 59.56640625 53.1328125 C48.67640625 53.1328125 37.78640625 53.1328125 26.56640625 53.1328125 C26.56640625 63.6928125 26.56640625 74.2528125 26.56640625 85.1328125 C21.28640625 85.1328125 16.00640625 85.1328125 10.56640625 85.1328125 C10.23640625 100.6428125 9.90640625 116.1528125 9.56640625 132.1328125 C14.51640625 132.1328125 19.46640625 132.1328125 24.56640625 132.1328125 C24.56640625 121.2428125 24.56640625 110.3528125 24.56640625 99.1328125 C29.18640625 99.1328125 33.80640625 99.1328125 38.56640625 99.1328125 C40.05140625 98.6378125 40.05140625 98.6378125 41.56640625 98.1328125 C41.56640625 87.9028125 41.56640625 77.6728125 41.56640625 67.1328125 C47.50640625 67.1328125 53.44640625 67.1328125 59.56640625 67.1328125 C59.56640625 72.7428125 59.56640625 78.3528125 59.56640625 84.1328125 C64.84640625 84.1328125 70.12640625 84.1328125 75.56640625 84.1328125 C75.89640625 94.6928125 76.22640625 105.2528125 76.56640625 116.1328125 C81.51640625 116.1328125 86.46640625 116.1328125 91.56640625 116.1328125 C91.56640625 105.5728125 91.56640625 95.0128125 91.56640625 84.1328125 C96.84640625 84.1328125 102.12640625 84.1328125 107.56640625 84.1328125 C107.56640625 79.1828125 107.56640625 74.2328125 107.56640625 69.1328125 C102.28640625 69.1328125 97.00640625 69.1328125 91.56640625 69.1328125 C91.56640625 63.8528125 91.56640625 58.5728125 91.56640625 53.1328125 C86.28640625 52.8028125 81.00640625 52.4728125 75.56640625 52.1328125 C75.56640625 46.8528125 75.56640625 41.5728125 75.56640625 36.1328125 C73.29765625 36.1121875 71.02890625 36.0915625 68.69140625 36.0703125 C66.77714844 36.05291016 66.77714844 36.05291016 64.82421875 36.03515625 C61.67975973 35.90104681 61.67975973 35.90104681 59.56640625 37.1328125 Z M109.56640625 53.1328125 C109.56640625 57.7528125 109.56640625 62.3728125 109.56640625 67.1328125 C114.51640625 67.1328125 119.46640625 67.1328125 124.56640625 67.1328125 C124.56640625 62.5128125 124.56640625 57.8928125 124.56640625 53.1328125 C119.61640625 53.1328125 114.66640625 53.1328125 109.56640625 53.1328125 Z M109.56640625 85.1328125 C109.56640625 95.3628125 109.56640625 105.5928125 109.56640625 116.1328125 C114.51640625 116.1328125 119.46640625 116.1328125 124.56640625 116.1328125 C124.56640625 105.9028125 124.56640625 95.6728125 124.56640625 85.1328125 C119.61640625 85.1328125 114.66640625 85.1328125 109.56640625 85.1328125 Z M43.56640625 101.1328125 C43.56640625 105.7528125 43.56640625 110.3728125 43.56640625 115.1328125 C50.49640625 115.6278125 50.49640625 115.6278125 57.56640625 116.1328125 C57.56640625 111.1828125 57.56640625 106.2328125 57.56640625 101.1328125 C52.94640625 101.1328125 48.32640625 101.1328125 43.56640625 101.1328125 Z M-5.43359375 134.1328125 C-5.43359375 139.0828125 -5.43359375 144.0328125 -5.43359375 149.1328125 C-0.81359375 149.1328125 3.80640625 149.1328125 8.56640625 149.1328125 C8.56640625 144.1828125 8.56640625 139.2328125 8.56640625 134.1328125 C3.94640625 134.1328125 -0.67359375 134.1328125 -5.43359375 134.1328125 Z M26.56640625 134.1328125 C26.56640625 139.0828125 26.56640625 144.0328125 26.56640625 149.1328125 C31.51640625 149.1328125 36.46640625 149.1328125 41.56640625 149.1328125 C41.56640625 144.1828125 41.56640625 139.2328125 41.56640625 134.1328125 C36.61640625 134.1328125 31.66640625 134.1328125 26.56640625 134.1328125 Z M77.56640625 134.1328125 C77.23640625 139.4128125 76.90640625 144.6928125 76.56640625 150.1328125 C68.15140625 150.6278125 68.15140625 150.6278125 59.56640625 151.1328125 C59.89640625 161.3628125 60.22640625 171.5928125 60.56640625 182.1328125 C65.51640625 182.1328125 70.46640625 182.1328125 75.56640625 182.1328125 C75.89640625 176.8528125 76.22640625 171.5728125 76.56640625 166.1328125 C84.98140625 165.6378125 84.98140625 165.6378125 93.56640625 165.1328125 C93.56640625 170.7428125 93.56640625 176.3528125 93.56640625 182.1328125 C98.84640625 182.1328125 104.12640625 182.1328125 109.56640625 182.1328125 C109.56640625 188.0728125 109.56640625 194.0128125 109.56640625 200.1328125 C101.64640625 200.6278125 101.64640625 200.6278125 93.56640625 201.1328125 C93.23640625 206.0828125 92.90640625 211.0328125 92.56640625 216.1328125 C87.61640625 216.4628125 82.66640625 216.7928125 77.56640625 217.1328125 C77.56640625 227.3628125 77.56640625 237.5928125 77.56640625 248.1328125 C82.18640625 248.1328125 86.80640625 248.1328125 91.56640625 248.1328125 C91.56640625 242.5228125 91.56640625 236.9128125 91.56640625 231.1328125 C96.84640625 231.1328125 102.12640625 231.1328125 107.56640625 231.1328125 C107.85555894 226.24162473 107.85555894 226.24162473 108.13452148 221.34985352 C108.45529514 216.24392361 108.45529514 216.24392361 109.56640625 215.1328125 C111.10023304 215.010277 112.63951144 214.95503312 114.17797852 214.92749023 C115.15891983 214.90754501 116.13986115 214.88759979 117.15052795 214.86705017 C118.21718185 214.85033768 119.28383575 214.83362518 120.3828125 214.81640625 C121.46900375 214.79562515 122.55519501 214.77484406 123.67430115 214.75343323 C127.15910252 214.68781808 130.64398193 214.62899739 134.12890625 214.5703125 C136.48503426 214.52713865 138.84115424 214.48352474 141.19726562 214.43945312 C146.9868983 214.33212453 152.77660979 214.23089119 158.56640625 214.1328125 C158.56640625 209.8428125 158.56640625 205.5528125 158.56640625 201.1328125 C147.67640625 200.8028125 136.78640625 200.4728125 125.56640625 200.1328125 C125.07140625 191.2228125 125.07140625 191.2228125 124.56640625 182.1328125 C130.17640625 182.1328125 135.78640625 182.1328125 141.56640625 182.1328125 C141.56640625 177.1828125 141.56640625 172.2328125 141.56640625 167.1328125 C130.67640625 167.1328125 119.78640625 167.1328125 108.56640625 167.1328125 C108.56640625 161.8528125 108.56640625 156.5728125 108.56640625 151.1328125 C102.95640625 151.1328125 97.34640625 151.1328125 91.56640625 151.1328125 C91.56640625 145.5228125 91.56640625 139.9128125 91.56640625 134.1328125 C86.94640625 134.1328125 82.32640625 134.1328125 77.56640625 134.1328125 Z M-39.43359375 151.1328125 C-39.43359375 155.7528125 -39.43359375 160.3728125 -39.43359375 165.1328125 C-34.48359375 165.1328125 -29.53359375 165.1328125 -24.43359375 165.1328125 C-24.76359375 160.5128125 -25.09359375 155.8928125 -25.43359375 151.1328125 C-30.05359375 151.1328125 -34.67359375 151.1328125 -39.43359375 151.1328125 Z M177.56640625 151.1328125 C177.56640625 161.3628125 177.56640625 171.5928125 177.56640625 182.1328125 C181.85640625 182.1328125 186.14640625 182.1328125 190.56640625 182.1328125 C190.89640625 176.8528125 191.22640625 171.5728125 191.56640625 166.1328125 C196.51640625 165.8028125 201.46640625 165.4728125 206.56640625 165.1328125 C206.56640625 160.5128125 206.56640625 155.8928125 206.56640625 151.1328125 C196.99640625 151.1328125 187.42640625 151.1328125 177.56640625 151.1328125 Z M225.56640625 151.1328125 C225.56640625 155.7528125 225.56640625 160.3728125 225.56640625 165.1328125 C234.80640625 165.1328125 244.04640625 165.1328125 253.56640625 165.1328125 C253.56640625 160.5128125 253.56640625 155.8928125 253.56640625 151.1328125 C244.32640625 151.1328125 235.08640625 151.1328125 225.56640625 151.1328125 Z M-117.43359375 167.1328125 C-117.43359375 171.7528125 -117.43359375 176.3728125 -117.43359375 181.1328125 C-113.14359375 181.4628125 -108.85359375 181.7928125 -104.43359375 182.1328125 C-104.43359375 177.1828125 -104.43359375 172.2328125 -104.43359375 167.1328125 C-108.72359375 167.1328125 -113.01359375 167.1328125 -117.43359375 167.1328125 Z M-85.43359375 167.1328125 C-85.76359375 177.6928125 -86.09359375 188.2528125 -86.43359375 199.1328125 C-89.47572642 200.65387884 -92.71406947 200.50710588 -96.05859375 200.6953125 C-96.765 200.73849609 -97.47140625 200.78167969 -98.19921875 200.82617188 C-99.94377912 200.93226001 -101.68866072 201.03304139 -103.43359375 201.1328125 C-103.43359375 205.4228125 -103.43359375 209.7128125 -103.43359375 214.1328125 C-92.87359375 214.1328125 -82.31359375 214.1328125 -71.43359375 214.1328125 C-71.43359375 198.6228125 -71.43359375 183.1128125 -71.43359375 167.1328125 C-76.05359375 167.1328125 -80.67359375 167.1328125 -85.43359375 167.1328125 Z M26.56640625 167.1328125 C26.56640625 171.7528125 26.56640625 176.3728125 26.56640625 181.1328125 C31.51640625 181.1328125 36.46640625 181.1328125 41.56640625 181.1328125 C41.56640625 176.5128125 41.56640625 171.8928125 41.56640625 167.1328125 C36.61640625 167.1328125 31.66640625 167.1328125 26.56640625 167.1328125 Z M-39.43359375 184.1328125 C-39.43359375 188.7528125 -39.43359375 193.3728125 -39.43359375 198.1328125 C-34.48359375 198.1328125 -29.53359375 198.1328125 -24.43359375 198.1328125 C-24.76359375 193.5128125 -25.09359375 188.8928125 -25.43359375 184.1328125 C-30.05359375 184.1328125 -34.67359375 184.1328125 -39.43359375 184.1328125 Z M10.56640625 184.1328125 C10.56640625 188.7528125 10.56640625 193.3728125 10.56640625 198.1328125 C15.18640625 198.1328125 19.80640625 198.1328125 24.56640625 198.1328125 C24.56640625 193.5128125 24.56640625 188.8928125 24.56640625 184.1328125 C19.94640625 184.1328125 15.32640625 184.1328125 10.56640625 184.1328125 Z M192.56640625 184.1328125 C192.56640625 194.0328125 192.56640625 203.9328125 192.56640625 214.1328125 C199.49640625 214.6278125 199.49640625 214.6278125 206.56640625 215.1328125 C206.56640625 204.9028125 206.56640625 194.6728125 206.56640625 184.1328125 C201.94640625 184.1328125 197.32640625 184.1328125 192.56640625 184.1328125 Z M225.56640625 184.1328125 C225.23640625 194.6928125 224.90640625 205.2528125 224.56640625 216.1328125 C216.64640625 216.6278125 216.64640625 216.6278125 208.56640625 217.1328125 C208.56640625 221.7528125 208.56640625 226.3728125 208.56640625 231.1328125 C218.46640625 231.1328125 228.36640625 231.1328125 238.56640625 231.1328125 C238.89640625 225.8528125 239.22640625 220.5728125 239.56640625 215.1328125 C244.18640625 214.8028125 248.80640625 214.4728125 253.56640625 214.1328125 C253.56640625 209.8428125 253.56640625 205.5528125 253.56640625 201.1328125 C246.63640625 200.6378125 246.63640625 200.6378125 239.56640625 200.1328125 C239.23640625 194.8528125 238.90640625 189.5728125 238.56640625 184.1328125 C234.27640625 184.1328125 229.98640625 184.1328125 225.56640625 184.1328125 Z M-54.43359375 201.1328125 C-54.43359375 206.4128125 -54.43359375 211.6928125 -54.43359375 217.1328125 C-59.71359375 217.1328125 -64.99359375 217.1328125 -70.43359375 217.1328125 C-70.43359375 221.7528125 -70.43359375 226.3728125 -70.43359375 231.1328125 C-65.15359375 231.1328125 -59.87359375 231.1328125 -54.43359375 231.1328125 C-54.43359375 236.7428125 -54.43359375 242.3528125 -54.43359375 248.1328125 C-50.14359375 248.1328125 -45.85359375 248.1328125 -41.43359375 248.1328125 C-41.43359375 242.5228125 -41.43359375 236.9128125 -41.43359375 231.1328125 C-36.15359375 231.1328125 -30.87359375 231.1328125 -25.43359375 231.1328125 C-25.43359375 226.5128125 -25.43359375 221.8928125 -25.43359375 217.1328125 C-30.38359375 216.8028125 -35.33359375 216.4728125 -40.43359375 216.1328125 C-40.76359375 211.1828125 -41.09359375 206.2328125 -41.43359375 201.1328125 C-46.49000321 200.3614958 -49.28550587 200.10319492 -54.43359375 201.1328125 Z M43.56640625 201.1328125 C43.56640625 205.7528125 43.56640625 210.3728125 43.56640625 215.1328125 C48.18640625 214.8028125 52.80640625 214.4728125 57.56640625 214.1328125 C57.56640625 209.8428125 57.56640625 205.5528125 57.56640625 201.1328125 C52.94640625 201.1328125 48.32640625 201.1328125 43.56640625 201.1328125 Z M-5.43359375 217.1328125 C-5.43359375 221.7528125 -5.43359375 226.3728125 -5.43359375 231.1328125 C10.07640625 231.1328125 25.58640625 231.1328125 41.56640625 231.1328125 C41.56640625 226.5128125 41.56640625 221.8928125 41.56640625 217.1328125 C26.05640625 217.1328125 10.54640625 217.1328125 -5.43359375 217.1328125 Z M160.56640625 217.1328125 C160.56640625 222.4128125 160.56640625 227.6928125 160.56640625 233.1328125 C154.95640625 233.1328125 149.34640625 233.1328125 143.56640625 233.1328125 C143.56640625 243.3628125 143.56640625 253.5928125 143.56640625 264.1328125 C148.51640625 264.1328125 153.46640625 264.1328125 158.56640625 264.1328125 C158.56640625 258.8528125 158.56640625 253.5728125 158.56640625 248.1328125 C161.78003906 248.15021484 161.78003906 248.15021484 165.05859375 248.16796875 C167.13036959 248.17576438 169.2021438 248.18183826 171.27392578 248.18774414 C172.71533945 248.19277724 174.15674801 248.19960423 175.59814453 248.20825195 C177.6683071 248.22036233 179.73840226 248.22605097 181.80859375 248.23046875 C183.67813721 248.23832397 183.67813721 248.23832397 185.58544922 248.24633789 C188.49411731 248.34097837 188.49411731 248.34097837 190.56640625 247.1328125 C190.56640625 237.2328125 190.56640625 227.3328125 190.56640625 217.1328125 C180.66640625 217.1328125 170.76640625 217.1328125 160.56640625 217.1328125 Z M43.56640625 233.1328125 C43.56640625 243.3628125 43.56640625 253.5928125 43.56640625 264.1328125 C48.18640625 264.1328125 52.80640625 264.1328125 57.56640625 264.1328125 C57.56640625 253.9028125 57.56640625 243.6728125 57.56640625 233.1328125 C52.94640625 233.1328125 48.32640625 233.1328125 43.56640625 233.1328125 Z M240.56640625 233.1328125 C240.56640625 237.7528125 240.56640625 242.3728125 240.56640625 247.1328125 C244.85640625 247.4628125 249.14640625 247.7928125 253.56640625 248.1328125 C253.56640625 243.1828125 253.56640625 238.2328125 253.56640625 233.1328125 C249.27640625 233.1328125 244.98640625 233.1328125 240.56640625 233.1328125 Z M-39.43359375 250.1328125 C-39.10359375 254.7528125 -38.77359375 259.3728125 -38.43359375 264.1328125 C-33.81359375 264.1328125 -29.19359375 264.1328125 -24.43359375 264.1328125 C-24.57796875 262.0084375 -24.72234375 259.8840625 -24.87109375 257.6953125 C-24.95230469 256.50035156 -25.03351563 255.30539062 -25.1171875 254.07421875 C-25.11015489 251.24711006 -25.11015489 251.24711006 -26.43359375 250.1328125 C-28.61998828 250.06022304 -30.80859764 250.04907467 -32.99609375 250.0703125 C-36.18265625 250.10125 -36.18265625 250.10125 -39.43359375 250.1328125 Z M10.56640625 250.1328125 C10.56640625 254.7528125 10.56640625 259.3728125 10.56640625 264.1328125 C15.18640625 264.1328125 19.80640625 264.1328125 24.56640625 264.1328125 C24.56640625 259.5128125 24.56640625 254.8928125 24.56640625 250.1328125 C19.94640625 250.1328125 15.32640625 250.1328125 10.56640625 250.1328125 Z M109.56640625 250.1328125 C109.56640625 254.7528125 109.56640625 259.3728125 109.56640625 264.1328125 C114.51640625 264.1328125 119.46640625 264.1328125 124.56640625 264.1328125 C124.56640625 259.5128125 124.56640625 254.8928125 124.56640625 250.1328125 C119.61640625 250.1328125 114.66640625 250.1328125 109.56640625 250.1328125 Z M209.56640625 250.1328125 C208.84202791 253.75470422 208.45055032 256.37046514 208.50390625 259.9453125 C208.52453125 261.3271875 208.54515625 262.7090625 208.56640625 264.1328125 C213.84640625 264.4628125 219.12640625 264.7928125 224.56640625 265.1328125 C224.89640625 270.0828125 225.22640625 275.0328125 225.56640625 280.1328125 C230.51640625 280.1328125 235.46640625 280.1328125 240.56640625 280.1328125 C240.56640625 285.4128125 240.56640625 290.6928125 240.56640625 296.1328125 C244.85640625 296.1328125 249.14640625 296.1328125 253.56640625 296.1328125 C253.56640625 286.2328125 253.56640625 276.3328125 253.56640625 266.1328125 C248.61640625 266.1328125 243.66640625 266.1328125 238.56640625 266.1328125 C238.56640625 260.8528125 238.56640625 255.5728125 238.56640625 250.1328125 C228.99640625 250.1328125 219.42640625 250.1328125 209.56640625 250.1328125 Z M26.56640625 266.1328125 C26.56640625 276.0328125 26.56640625 285.9328125 26.56640625 296.1328125 C36.79640625 296.1328125 47.02640625 296.1328125 57.56640625 296.1328125 C57.56640625 291.5128125 57.56640625 286.8928125 57.56640625 282.1328125 C52.28640625 282.1328125 47.00640625 282.1328125 41.56640625 282.1328125 C41.56640625 276.8528125 41.56640625 271.5728125 41.56640625 266.1328125 C36.61640625 266.1328125 31.66640625 266.1328125 26.56640625 266.1328125 Z M59.56640625 266.1328125 C59.56640625 270.7528125 59.56640625 275.3728125 59.56640625 280.1328125 C70.12640625 280.1328125 80.68640625 280.1328125 91.56640625 280.1328125 C91.56640625 275.5128125 91.56640625 270.8928125 91.56640625 266.1328125 C81.00640625 266.1328125 70.44640625 266.1328125 59.56640625 266.1328125 Z M109.56640625 282.1328125 C109.56640625 286.7528125 109.56640625 291.3728125 109.56640625 296.1328125 C114.51640625 296.1328125 119.46640625 296.1328125 124.56640625 296.1328125 C124.56640625 291.5128125 124.56640625 286.8928125 124.56640625 282.1328125 C119.61640625 282.1328125 114.66640625 282.1328125 109.56640625 282.1328125 Z M143.56640625 282.1328125 C143.56640625 297.9728125 143.56640625 313.8128125 143.56640625 330.1328125 C159.07640625 330.1328125 174.58640625 330.1328125 190.56640625 330.1328125 C190.56640625 314.2928125 190.56640625 298.4528125 190.56640625 282.1328125 C175.05640625 282.1328125 159.54640625 282.1328125 143.56640625 282.1328125 Z M208.56640625 282.1328125 C208.56640625 286.7528125 208.56640625 291.3728125 208.56640625 296.1328125 C213.18640625 296.1328125 217.80640625 296.1328125 222.56640625 296.1328125 C222.56640625 291.5128125 222.56640625 286.8928125 222.56640625 282.1328125 C217.94640625 282.1328125 213.32640625 282.1328125 208.56640625 282.1328125 Z M10.56640625 299.1328125 C10.56640625 304.0828125 10.56640625 309.0328125 10.56640625 314.1328125 C15.18640625 314.1328125 19.80640625 314.1328125 24.56640625 314.1328125 C24.56640625 309.1828125 24.56640625 304.2328125 24.56640625 299.1328125 C19.94640625 299.1328125 15.32640625 299.1328125 10.56640625 299.1328125 Z M77.56640625 299.1328125 C77.23640625 304.4128125 76.90640625 309.6928125 76.56640625 315.1328125 C60.06640625 315.4628125 43.56640625 315.7928125 26.56640625 316.1328125 C26.56640625 320.7528125 26.56640625 325.3728125 26.56640625 330.1328125 C37.45640625 330.1328125 48.34640625 330.1328125 59.56640625 330.1328125 C59.56640625 335.4128125 59.56640625 340.6928125 59.56640625 346.1328125 C64.51640625 346.1328125 69.46640625 346.1328125 74.56640625 346.1328125 C74.89640625 341.1828125 75.22640625 336.2328125 75.56640625 331.1328125 C80.84640625 330.8028125 86.12640625 330.4728125 91.56640625 330.1328125 C91.56640625 319.9028125 91.56640625 309.6728125 91.56640625 299.1328125 C86.94640625 299.1328125 82.32640625 299.1328125 77.56640625 299.1328125 Z M225.56640625 299.1328125 C225.56640625 304.4128125 225.56640625 309.6928125 225.56640625 315.1328125 C217.15140625 315.6278125 217.15140625 315.6278125 208.56640625 316.1328125 C208.56640625 320.7528125 208.56640625 325.3728125 208.56640625 330.1328125 C214.17640625 330.1328125 219.78640625 330.1328125 225.56640625 330.1328125 C225.56640625 335.4128125 225.56640625 340.6928125 225.56640625 346.1328125 C234.80640625 346.1328125 244.04640625 346.1328125 253.56640625 346.1328125 C253.56640625 341.1828125 253.56640625 336.2328125 253.56640625 331.1328125 C248.61640625 331.1328125 243.66640625 331.1328125 238.56640625 331.1328125 C238.56640625 320.5728125 238.56640625 310.0128125 238.56640625 299.1328125 C234.27640625 299.1328125 229.98640625 299.1328125 225.56640625 299.1328125 Z M109.56640625 316.1328125 C109.56640625 320.7528125 109.56640625 325.3728125 109.56640625 330.1328125 C114.51640625 330.1328125 119.46640625 330.1328125 124.56640625 330.1328125 C124.56640625 325.5128125 124.56640625 320.8928125 124.56640625 316.1328125 C119.61640625 316.1328125 114.66640625 316.1328125 109.56640625 316.1328125 Z M26.56640625 348.1328125 C26.56640625 358.3628125 26.56640625 368.5928125 26.56640625 379.1328125 C31.51640625 379.1328125 36.46640625 379.1328125 41.56640625 379.1328125 C41.56640625 368.9028125 41.56640625 358.6728125 41.56640625 348.1328125 C36.61640625 348.1328125 31.66640625 348.1328125 26.56640625 348.1328125 Z M77.56640625 348.1328125 C77.2772323 353.3531191 77.2772323 353.3531191 76.99829102 358.57397461 C76.67751736 364.02170139 76.67751736 364.02170139 75.56640625 365.1328125 C72.86985771 365.20600871 70.19949167 365.22523787 67.50390625 365.1953125 C66.74529297 365.19080078 65.98667969 365.18628906 65.20507812 365.18164062 C63.32548754 365.1698193 61.44593726 365.15188328 59.56640625 365.1328125 C59.56640625 369.7528125 59.56640625 374.3728125 59.56640625 379.1328125 C65.17640625 379.4628125 70.78640625 379.7928125 76.56640625 380.1328125 C76.89640625 385.0828125 77.22640625 390.0328125 77.56640625 395.1328125 C82.18640625 395.1328125 86.80640625 395.1328125 91.56640625 395.1328125 C91.56640625 384.5728125 91.56640625 374.0128125 91.56640625 363.1328125 C96.84640625 363.1328125 102.12640625 363.1328125 107.56640625 363.1328125 C107.56640625 358.1828125 107.56640625 353.2328125 107.56640625 348.1328125 C97.66640625 348.1328125 87.76640625 348.1328125 77.56640625 348.1328125 Z M160.56640625 348.1328125 C160.23640625 353.4128125 159.90640625 358.6928125 159.56640625 364.1328125 C154.28640625 364.4628125 149.00640625 364.7928125 143.56640625 365.1328125 C143.56640625 369.7528125 143.56640625 374.3728125 143.56640625 379.1328125 C154.12640625 379.1328125 164.68640625 379.1328125 175.56640625 379.1328125 C175.56640625 368.9028125 175.56640625 358.6728125 175.56640625 348.1328125 C170.61640625 348.1328125 165.66640625 348.1328125 160.56640625 348.1328125 Z M193.56640625 348.1328125 C193.56640625 353.0828125 193.56640625 358.0328125 193.56640625 363.1328125 C203.13640625 363.1328125 212.70640625 363.1328125 222.56640625 363.1328125 C222.56640625 358.1828125 222.56640625 353.2328125 222.56640625 348.1328125 C212.99640625 348.1328125 203.42640625 348.1328125 193.56640625 348.1328125 Z M225.56640625 365.1328125 C225.56640625 369.7528125 225.56640625 374.3728125 225.56640625 379.1328125 C229.85640625 379.1328125 234.14640625 379.1328125 238.56640625 379.1328125 C238.56640625 374.5128125 238.56640625 369.8928125 238.56640625 365.1328125 C234.27640625 365.1328125 229.98640625 365.1328125 225.56640625 365.1328125 Z M42.56640625 381.1328125 C42.56640625 385.7528125 42.56640625 390.3728125 42.56640625 395.1328125 C47.51640625 395.1328125 52.46640625 395.1328125 57.56640625 395.1328125 C57.56640625 390.5128125 57.56640625 385.8928125 57.56640625 381.1328125 C52.61640625 381.1328125 47.66640625 381.1328125 42.56640625 381.1328125 Z " fill="#15280F" transform="translate(179.43359375,38.8671875)"/>
<path d="M0 0 C0.94231476 -0.00281982 1.88462952 -0.00563965 2.85549927 -0.00854492 C4.41867386 -0.00550858 4.41867386 -0.00550858 6.01342773 -0.00241089 C7.10436737 -0.00416321 8.19530701 -0.00591553 9.31930542 -0.00772095 C12.9452267 -0.01214199 16.57109966 -0.00920058 20.19702148 -0.00582886 C22.70426442 -0.00650182 25.21150729 -0.00747179 27.71875 -0.00872803 C32.981369 -0.01020534 38.2439753 -0.00814396 43.5065918 -0.00338745 C49.5988035 0.00205513 55.69098174 0.00029246 61.78319263 -0.00521386 C67.63353167 -0.01029079 73.48385793 -0.0097634 79.334198 -0.00683212 C81.82860316 -0.0061626 84.32300916 -0.00699214 86.81741333 -0.00931168 C90.29683735 -0.01183672 93.77619611 -0.0079997 97.25561523 -0.00241089 C98.29773163 -0.00443512 99.33984802 -0.00645935 100.4135437 -0.00854492 C101.82701584 -0.00431519 101.82701584 -0.00431519 103.26904297 0 C104.09274887 0.00037703 104.91645477 0.00075405 105.76512146 0.0011425 C107.63452148 0.12698364 107.63452148 0.12698364 108.63452148 1.12698364 C108.73240412 2.61749632 108.7608393 4.11263069 108.76150513 5.60635376 C108.76573486 7.05768959 108.76573486 7.05768959 108.77005005 8.53834534 C108.7670137 10.14359825 108.7670137 10.14359825 108.76391602 11.78128052 C108.76654449 13.46158104 108.76654449 13.46158104 108.76922607 15.17582703 C108.77364725 18.89914474 108.77070566 22.6224154 108.76733398 26.34573364 C108.76800695 28.92023732 108.76897691 31.49474093 108.77023315 34.06924438 C108.77171049 39.47310039 108.76964902 44.87693854 108.76489258 50.28079224 C108.75944999 56.53659836 108.76121266 62.7923719 108.76671898 69.04817724 C108.77179583 75.05549414 108.77126856 81.06279504 108.76833725 87.07011414 C108.76766771 89.63150538 108.76849732 92.19289744 108.7708168 94.75428772 C108.77334176 98.32711017 108.76950494 101.89986908 108.76391602 105.47268677 C108.76594025 106.54285538 108.76796448 107.61302399 108.77005005 108.71562195 C108.76723022 109.68317917 108.7644104 110.65073639 108.76150513 111.64761353 C108.76093959 112.91635693 108.76093959 112.91635693 108.76036263 114.21073151 C108.63452148 116.12698364 108.63452148 116.12698364 107.63452148 117.12698364 C106.16703189 117.22263487 104.69495265 117.24886673 103.22434998 117.24723816 C102.2721759 117.24861282 101.32000183 117.24998749 100.338974 117.25140381 C99.28593582 117.24780853 98.23289764 117.24421326 97.14794922 117.24050903 C96.04564972 117.24065506 94.94335022 117.24080109 93.80764771 117.24095154 C90.14445057 117.24025186 86.48130355 117.23245688 82.81811523 117.22463989 C80.2860568 117.22277591 77.75399801 117.22135191 75.22193909 117.22035217 C69.22603899 117.2169171 63.23016059 117.20902633 57.2342692 117.19900268 C50.40971091 117.18784042 43.58515176 117.18233081 36.76058662 117.17730725 C22.71855484 117.16684368 8.67653916 117.14924495 -5.36547852 117.12698364 C-5.38880821 102.01973673 -5.40645804 86.91249121 -5.41729069 71.80523014 C-5.4224535 64.7911373 -5.4294959 57.77705564 -5.44091797 50.76296997 C-5.45192539 44.00030297 -5.45775471 37.23765 -5.46035576 30.47497368 C-5.46221055 27.88846084 -5.46583218 25.30194867 -5.47120857 22.71544075 C-5.47841503 19.10659509 -5.47946962 15.49779817 -5.47900391 11.88894653 C-5.48259918 10.80785614 -5.48619446 9.72676575 -5.48989868 8.61291504 C-5.48852402 7.6354985 -5.48714935 6.65808197 -5.48573303 5.65104675 C-5.48665483 4.79654466 -5.48757662 3.94204256 -5.48852634 3.06164646 C-5.2527384 -0.64561257 -3.21628189 0.00147215 0 0 Z M13.63452148 20.12698364 C13.63452148 45.86698364 13.63452148 71.60698364 13.63452148 98.12698364 C38.38452148 98.12698364 63.13452148 98.12698364 88.63452148 98.12698364 C88.63452148 72.38698364 88.63452148 46.64698364 88.63452148 20.12698364 C63.88452148 20.12698364 39.13452148 20.12698364 13.63452148 20.12698364 Z " fill="#152B0F" transform="translate(48.365478515625,38.873016357421875)"/>
<path d="M0 0 C1.2485686 0.00138269 1.2485686 0.00138269 2.5223608 0.00279331 C3.47254621 0.00141582 4.42273161 0.00003832 5.40171051 -0.00138092 C6.45673736 0.00221719 7.5117642 0.0058153 8.59876156 0.00952244 C10.27905783 0.00934164 10.27905783 0.00934164 11.99329948 0.00915718 C15.638418 0.00990672 19.28348611 0.01753682 22.92859554 0.02539158 C25.17139314 0.02686087 27.41419109 0.02788166 29.6569891 0.02844334 C37.99622771 0.0336977 46.33545899 0.04765876 54.67468929 0.06054783 C73.29906429 0.08117283 91.92343929 0.10179783 111.11218929 0.12304783 C111.11218929 38.73304783 111.11218929 77.34304783 111.11218929 117.12304783 C73.49218929 117.12304783 35.87218929 117.12304783 -2.88781071 117.12304783 C-2.92797438 88.17396817 -2.92797438 88.17396817 -2.93806458 73.92398071 C-2.94361632 66.20232565 -2.95067587 58.48068132 -2.96325016 50.75903416 C-2.97425758 43.99636715 -2.9800869 37.23371418 -2.98268795 30.47103786 C-2.98454274 27.88452502 -2.98816437 25.29801285 -2.99354076 22.71150494 C-3.00074722 19.10265928 -3.00180182 15.49386236 -3.0013361 11.88501072 C-3.00493137 10.80392033 -3.00852665 9.72282993 -3.01223087 8.60897923 C-3.01085621 7.63156269 -3.00948154 6.65414616 -3.00806522 5.64711094 C-3.00898702 4.79260884 -3.00990881 3.93810675 -3.01085854 3.05771065 C-2.84574028 0.46158076 -2.59735227 0.16929587 0 0 Z M16.11218929 20.12304783 C16.11218929 45.86304783 16.11218929 71.60304783 16.11218929 98.12304783 C41.19218929 98.12304783 66.27218929 98.12304783 92.11218929 98.12304783 C92.11218929 72.38304783 92.11218929 46.64304783 92.11218929 20.12304783 C67.03218929 20.12304783 41.95218929 20.12304783 16.11218929 20.12304783 Z " fill="#16270F" transform="translate(340.8878107070923,38.876952171325684)"/>
<path d="M0 0 C0.94231476 -0.00281982 1.88462952 -0.00563965 2.85549927 -0.00854492 C4.41867386 -0.00550858 4.41867386 -0.00550858 6.01342773 -0.00241089 C7.10436737 -0.00416321 8.19530701 -0.00591553 9.31930542 -0.00772095 C12.9452267 -0.01214199 16.57109966 -0.00920058 20.19702148 -0.00582886 C22.70426442 -0.00650182 25.21150729 -0.00747179 27.71875 -0.00872803 C32.981369 -0.01020534 38.2439753 -0.00814396 43.5065918 -0.00338745 C49.5988035 0.00205513 55.69098174 0.00029246 61.78319263 -0.00521386 C67.63353167 -0.01029079 73.48385793 -0.0097634 79.334198 -0.00683212 C81.82860316 -0.0061626 84.32300916 -0.00699214 86.81741333 -0.00931168 C90.29683735 -0.01183672 93.77619611 -0.0079997 97.25561523 -0.00241089 C98.29773163 -0.00443512 99.33984802 -0.00645935 100.4135437 -0.00854492 C101.82701584 -0.00431519 101.82701584 -0.00431519 103.26904297 0 C104.09274887 0.00037703 104.91645477 0.00075405 105.76512146 0.0011425 C107.63452148 0.12698364 107.63452148 0.12698364 108.63452148 1.12698364 C108.73240412 2.61749632 108.7608393 4.11263069 108.76150513 5.60635376 C108.76573486 7.05768959 108.76573486 7.05768959 108.77005005 8.53834534 C108.7670137 10.14359825 108.7670137 10.14359825 108.76391602 11.78128052 C108.76654449 13.46158104 108.76654449 13.46158104 108.76922607 15.17582703 C108.77364725 18.89914474 108.77070566 22.6224154 108.76733398 26.34573364 C108.76800695 28.92023732 108.76897691 31.49474093 108.77023315 34.06924438 C108.77171049 39.47310039 108.76964902 44.87693854 108.76489258 50.28079224 C108.75944999 56.53659836 108.76121266 62.7923719 108.76671898 69.04817724 C108.77179583 75.05549414 108.77126856 81.06279504 108.76833725 87.07011414 C108.76766771 89.63150538 108.76849732 92.19289744 108.7708168 94.75428772 C108.77334176 98.32711017 108.76950494 101.89986908 108.76391602 105.47268677 C108.76594025 106.54285538 108.76796448 107.61302399 108.77005005 108.71562195 C108.76723022 109.68317917 108.7644104 110.65073639 108.76150513 111.64761353 C108.76093959 112.91635693 108.76093959 112.91635693 108.76036263 114.21073151 C108.63452148 116.12698364 108.63452148 116.12698364 107.63452148 117.12698364 C106.16703189 117.22263487 104.69495265 117.24886673 103.22434998 117.24723816 C102.2721759 117.24861282 101.32000183 117.24998749 100.338974 117.25140381 C99.28593582 117.24780853 98.23289764 117.24421326 97.14794922 117.24050903 C96.04564972 117.24065506 94.94335022 117.24080109 93.80764771 117.24095154 C90.14445057 117.24025186 86.48130355 117.23245688 82.81811523 117.22463989 C80.2860568 117.22277591 77.75399801 117.22135191 75.22193909 117.22035217 C69.22603899 117.2169171 63.23016059 117.20902633 57.2342692 117.19900268 C50.40971091 117.18784042 43.58515176 117.18233081 36.76058662 117.17730725 C22.71855484 117.16684368 8.67653916 117.14924495 -5.36547852 117.12698364 C-5.38880821 102.01973673 -5.40645804 86.91249121 -5.41729069 71.80523014 C-5.4224535 64.7911373 -5.4294959 57.77705564 -5.44091797 50.76296997 C-5.45192539 44.00030297 -5.45775471 37.23765 -5.46035576 30.47497368 C-5.46221055 27.88846084 -5.46583218 25.30194867 -5.47120857 22.71544075 C-5.47841503 19.10659509 -5.47946962 15.49779817 -5.47900391 11.88894653 C-5.48259918 10.80785614 -5.48619446 9.72676575 -5.48989868 8.61291504 C-5.48852402 7.6354985 -5.48714935 6.65808197 -5.48573303 5.65104675 C-5.48665483 4.79654466 -5.48757662 3.94204256 -5.48852634 3.06164646 C-5.2527384 -0.64561257 -3.21628189 0.00147215 0 0 Z M13.63452148 20.12698364 C13.63452148 46.19698364 13.63452148 72.26698364 13.63452148 99.12698364 C38.71452148 99.12698364 63.79452148 99.12698364 89.63452148 99.12698364 C89.63452148 73.05698364 89.63452148 46.98698364 89.63452148 20.12698364 C64.55452148 20.12698364 39.47452148 20.12698364 13.63452148 20.12698364 Z " fill="#152610" transform="translate(48.365478515625,334.8730163574219)"/>
<path d="M0 0 C8.064375 -0.020625 16.12875 -0.04125 24.4375 -0.0625 C26.98654053 -0.071604 29.53558105 -0.08070801 32.16186523 -0.09008789 C34.16910754 -0.09300688 36.17635043 -0.09555548 38.18359375 -0.09765625 C39.76291687 -0.1053302 39.76291687 -0.1053302 41.37414551 -0.11315918 C42.36885864 -0.11328003 43.36357178 -0.11340088 44.38842773 -0.11352539 C45.25668686 -0.115746 46.12494598 -0.11796661 47.01951599 -0.12025452 C49 0 49 0 50 1 C50.09326716 2.56547048 50.11745582 4.13512772 50.11352539 5.70336914 C50.11340454 6.71838501 50.11328369 7.73340088 50.11315918 8.7791748 C50.10804321 9.85364868 50.10292725 10.92812256 50.09765625 12.03515625 C50.09664917 13.01705933 50.09564209 13.9989624 50.09460449 15.01062012 C50.08935445 18.69459188 50.07539332 22.37854706 50.0625 26.0625 C50.0315625 38.4065625 50.0315625 38.4065625 50 51 C33.5 51 17 51 0 51 C0 34.17 0 17.34 0 0 Z " fill="#16280F" transform="translate(75,73)"/>
<path d="M0 0 C0.85049423 0.00222061 1.70098846 0.00444122 2.57725525 0.00672913 C4.01863609 0.00684242 4.01863609 0.00684242 5.48913574 0.00695801 C7.05630592 0.01469994 7.05630592 0.01469994 8.65513611 0.02259827 C9.71913132 0.02401321 10.78312653 0.02542816 11.87936401 0.02688599 C15.29293069 0.03250388 18.70643286 0.04505941 22.11997986 0.05775452 C24.42792162 0.06276721 26.73586441 0.06733052 29.04380798 0.07142639 C34.71505412 0.08247912 40.38626238 0.09923465 46.05747986 0.12025452 C47.01362057 2.98867665 47.1840043 4.78226265 47.18687439 7.75941467 C47.19002655 8.69693573 47.19317871 9.63445679 47.19642639 10.60038757 C47.19440216 11.60983429 47.19237793 12.61928101 47.19029236 13.65931702 C47.19124908 14.69591461 47.19220581 15.73251221 47.19319153 16.80052185 C47.19387208 18.9910844 47.1920265 21.18164897 47.18785095 23.37220764 C47.18249015 26.73878972 47.18780575 30.10523904 47.19419861 33.47181702 C47.19353802 35.59681731 47.19225725 37.72181753 47.19029236 39.84681702 C47.19231659 40.86031219 47.19434082 41.87380737 47.19642639 42.91801453 C47.19169815 44.31483963 47.19169815 44.31483963 47.18687439 45.73988342 C47.1860788 46.56356415 47.1852832 47.38724487 47.1844635 48.23588562 C47.05747986 50.12025452 47.05747986 50.12025452 46.05747986 51.12025452 C44.59576254 51.24775009 43.12813703 51.30851205 41.66123962 51.34144592 C40.7267952 51.36461884 39.79235077 51.38779175 38.82958984 51.41166687 C37.81295761 51.43151642 36.79632538 51.45136597 35.74888611 51.47181702 C34.71183029 51.49496979 33.67477448 51.51812256 32.60629272 51.54197693 C30.40802547 51.58969638 28.20970287 51.63492048 26.01133728 51.6778717 C22.63783839 51.74489969 19.26470527 51.82266169 15.89146423 51.90150452 C13.76061844 51.9464243 11.6297593 51.9907161 9.49888611 52.03431702 C8.48427811 52.05821503 7.4696701 52.08211304 6.42431641 52.10673523 C5.01792152 52.13203812 5.01792152 52.13203812 3.58311462 52.15785217 C2.7556221 52.17482147 1.92812958 52.19179077 1.07556152 52.20927429 C-0.94252014 52.12025452 -0.94252014 52.12025452 -2.94252014 51.12025452 C-2.96778802 44.01780452 -2.98535215 36.91536604 -2.99745178 29.81288147 C-3.00249363 27.39458279 -3.00932692 24.97628718 -3.01795959 22.55799866 C-3.03003171 19.09046168 -3.03574977 15.62296485 -3.04017639 12.15541077 C-3.04533768 11.06688309 -3.05049896 9.97835541 -3.05581665 8.85684204 C-3.05589218 7.85587997 -3.05596771 6.85491791 -3.05604553 5.82362366 C-3.05826614 4.93759964 -3.06048676 4.05157562 -3.06277466 3.13870239 C-2.90270872 0.4520278 -2.68768884 0.16638526 0 0 Z " fill="#16280F" transform="translate(372.94252014160156,72.87974548339844)"/>
<path d="M0 0 C16.17 0 32.34 0 49 0 C50.12528668 6.75172006 50.12528668 6.75172006 50.12939453 10.38134766 C50.13254669 11.18883453 50.13569885 11.99632141 50.13894653 12.82827759 C50.1369223 13.68158661 50.13489807 14.53489563 50.1328125 15.4140625 C50.13376923 16.30612396 50.13472595 17.19818542 50.13571167 18.11727905 C50.13638965 19.99485342 50.1345621 21.87243018 50.13037109 23.75 C50.12500477 26.62244923 50.13033554 29.49474301 50.13671875 32.3671875 C50.13605815 34.19531284 50.13477736 36.02343809 50.1328125 37.8515625 C50.13483673 38.70891998 50.13686096 39.56627747 50.13894653 40.44961548 C50.13421829 41.65138931 50.13421829 41.65138931 50.12939453 42.87744141 C50.12859894 43.57882233 50.12780334 44.28020325 50.12698364 45.00283813 C50 47 50 47 49 51 C32.83 51 16.66 51 0 51 C0 34.17 0 17.34 0 0 Z " fill="#15280F" transform="translate(75,369)"/>
<path d="M0 0 C0.33 0 0.66 0 1 0 C1 2.97 1 5.94 1 9 C6.61 9 12.22 9 18 9 C18 19.89 18 30.78 18 42 C28.56 42 39.12 42 50 42 C50 42.33 50 42.66 50 43 C45.57525999 43.17067352 41.15028645 43.33082005 36.72485352 43.48217773 C35.22670829 43.53478631 33.72865258 43.59002577 32.23071289 43.64819336 C22.06618705 44.04058022 12.13929902 43.88970517 2 43 C1.67 43.99 1.34 44.98 1 46 C0.67 45.01 0.34 44.02 0 43 C-4.95 43 -9.9 43 -15 43 C-15 52.9 -15 62.8 -15 73 C-4.77 73 5.46 73 16 73 C16 68.38 16 63.76 16 59 C16.99 59 17.98 59 19 59 C18.67 64.28 18.34 69.56 18 75 C6.45 75 -5.1 75 -17 75 C-17 64.77 -17 54.54 -17 44 C-22.28 43.67 -27.56 43.34 -33 43 C-33 37.39 -33 31.78 -33 26 C-32.67 26 -32.34 26 -32 26 C-32 30.95 -32 35.9 -32 41 C-26.72 41 -21.44 41 -16 41 C-16 35.72 -16 30.44 -16 25 C-15.67 25 -15.34 25 -15 25 C-15 30.61 -15 36.22 -15 42 C-12.525 41.505 -12.525 41.505 -10 41 C-6.7 41 -3.4 41 0 41 C0 30.77 0 20.54 0 10 C-13.86 10 -27.72 10 -42 10 C-42 9.34 -42 8.68 -42 8 C-28.14 8 -14.28 8 0 8 C0 5.36 0 2.72 0 0 Z M2 10 C2 20.23 2 30.46 2 41 C6.62 41 11.24 41 16 41 C16 30.77 16 20.54 16 10 C11.38 10 6.76 10 2 10 Z " fill="#10170E" transform="translate(221,262)"/>
<path d="M0 0 C0.33 0 0.66 0 1 0 C1.58079723 8.47341679 2.10348478 16.94251086 2.1875 25.4375 C2.20167969 26.65308594 2.21585937 27.86867188 2.23046875 29.12109375 C2 32 2 32 0 34 C-2.75589777 33.98252073 -5.38786676 33.86136729 -8.125 33.625 C-8.87910156 33.56828125 -9.63320312 33.5115625 -10.41015625 33.453125 C-12.27418096 33.3115535 -14.13721137 33.15700041 -16 33 C-16 37.62 -16 42.24 -16 47 C-14.17662109 46.98259766 -14.17662109 46.98259766 -12.31640625 46.96484375 C-10.73177236 46.95546722 -9.14713682 46.94636687 -7.5625 46.9375 C-6.35883789 46.92493164 -6.35883789 46.92493164 -5.13085938 46.91210938 C-3.08704779 46.9034857 -1.04316098 46.9477185 1 47 C2 48 2 48 2.09765625 51.37890625 C2.09098369 52.77347077 2.07902532 54.16801743 2.0625 55.5625 C2.05798828 56.27341797 2.05347656 56.98433594 2.04882812 57.71679688 C2.03700864 59.47790013 2.01907263 61.23896036 2 63 C6.62 63 11.24 63 16 63 C16 63.33 16 63.66 16 64 C10.72 64 5.44 64 0 64 C0 59.05 0 54.1 0 49 C-5.28 49 -10.56 49 -16 49 C-16 53.95 -16 58.9 -16 64 C-21.61 64 -27.22 64 -33 64 C-33 63.67 -33 63.34 -33 63 C-28.05 63 -23.1 63 -18 63 C-18 58.38 -18 53.76 -18 49 C-22.95 49 -27.9 49 -33 49 C-33.33 49.66 -33.66 50.32 -34 51 C-34 50.34 -34 49.68 -34 49 C-39.28 49 -44.56 49 -50 49 C-50 37.78 -50 26.56 -50 15 C-44.39 15 -38.78 15 -33 15 C-33 25.56 -33 36.12 -33 47 C-27.72 47 -22.44 47 -17 47 C-17 41.72 -17 36.44 -17 31 C-11.39 31 -5.78 31 0 31 C0 26.05 0 21.1 0 16 C-4.95 16 -9.9 16 -15 16 C-15 15.67 -15 15.34 -15 15 C-10.05 15 -5.1 15 0 15 C-0.495 13.515 -0.495 13.515 -1 12 C-0.91426773 9.93412885 -0.76166465 7.87053475 -0.5625 5.8125 C-0.46066406 4.72582031 -0.35882813 3.63914062 -0.25390625 2.51953125 C-0.17011719 1.68808594 -0.08632812 0.85664063 0 0 Z M-49 16 C-49 26.23 -49 36.46 -49 47 C-44.05 47 -39.1 47 -34 47 C-34 36.77 -34 26.54 -34 16 C-38.95 16 -43.9 16 -49 16 Z " fill="#11180F" transform="translate(255,371)"/>
<path d="M0 0 C0.79792969 0.00386719 1.59585937 0.00773437 2.41796875 0.01171875 C3.21589844 0.00785156 4.01382812 0.00398438 4.8359375 0 C10.79136108 0.01011108 10.79136108 0.01011108 11.91796875 1.13671875 C12.01634085 2.467155 12.04875467 3.80265219 12.05078125 5.13671875 C12.05271484 6.34328125 12.05271484 6.34328125 12.0546875 7.57421875 C12.05082031 8.41984375 12.04695313 9.26546875 12.04296875 10.13671875 C12.04876953 11.40515625 12.04876953 11.40515625 12.0546875 12.69921875 C12.05339844 13.50359375 12.05210937 14.30796875 12.05078125 15.13671875 C12.04965332 15.87921875 12.04852539 16.62171875 12.04736328 17.38671875 C11.91796875 19.13671875 11.91796875 19.13671875 10.91796875 20.13671875 C8.07461827 20.2365885 5.26099712 20.27549756 2.41796875 20.26171875 C1.62003906 20.26558594 0.82210938 20.26945312 0 20.2734375 C-5.95542358 20.26332642 -5.95542358 20.26332642 -7.08203125 19.13671875 C-7.18040335 17.8062825 -7.21281717 16.47078531 -7.21484375 15.13671875 C-7.21613281 14.33234375 -7.21742188 13.52796875 -7.21875 12.69921875 C-7.21488281 11.85359375 -7.21101563 11.00796875 -7.20703125 10.13671875 C-7.21089844 9.29109375 -7.21476562 8.44546875 -7.21875 7.57421875 C-7.21746094 6.76984375 -7.21617187 5.96546875 -7.21484375 5.13671875 C-7.21371582 4.39421875 -7.21258789 3.65171875 -7.21142578 2.88671875 C-6.90560969 -1.24929962 -3.34695304 0.00568243 0 0 Z " fill="#162810" transform="translate(345.08203125,334.86328125)"/>
<path d="M0 0 C25.41 0 50.82 0 77 0 C77 0.66 77 1.32 77 2 C52.25 2 27.5 2 2 2 C2 27.74 2 53.48 2 80 C6.62 80 11.24 80 16 80 C18.93712522 80.05723847 21.86919729 80.12312081 24.8046875 80.21875 C25.53954376 80.24094604 26.27440002 80.26314209 27.03152466 80.28601074 C29.31274934 80.35535758 31.5938702 80.42760632 33.875 80.5 C35.44921276 80.54837239 37.0234315 80.59655052 38.59765625 80.64453125 C42.3985099 80.76079061 46.19927387 80.87964687 50 81 C50 81.33 50 81.66 50 82 C33.5 82 17 82 0 82 C0 54.94 0 27.88 0 0 Z " fill="#121A12" transform="translate(60,57)"/>
<path d="M0 0 C14.58571195 -0.02333003 29.17142103 -0.04091327 43.75714779 -0.05181217 C50.52910421 -0.05697491 57.30104905 -0.06401718 64.07299805 -0.07543945 C70.60224426 -0.08644714 77.13148294 -0.09227625 83.66073799 -0.09487724 C86.15793612 -0.09673199 88.65513355 -0.10035354 91.15232658 -0.10573006 C94.63664069 -0.11293684 98.12090431 -0.1139911 101.60522461 -0.11352539 C102.64891205 -0.11712067 103.69259949 -0.12071594 104.76791382 -0.12442017 C105.71167374 -0.1230455 106.65543365 -0.12167084 107.62779236 -0.12025452 C108.45279708 -0.12117631 109.2778018 -0.1220981 110.12780666 -0.12304783 C112 0 112 0 113 1 C113.09571971 2.49283798 113.12188227 3.99019655 113.12025452 5.48609924 C113.12231651 6.93960281 113.12231651 6.93960281 113.12442017 8.42247009 C113.11902725 10.03007957 113.11902725 10.03007957 113.11352539 11.67016602 C113.11367142 12.79197266 113.11381744 13.9137793 113.1139679 15.06958008 C113.1132682 18.79770811 113.10547315 22.52578689 113.09765625 26.25390625 C113.09579227 28.83080518 113.09436827 31.40770447 113.09336853 33.98460388 C113.08993342 40.08675115 113.0820426 46.18887794 113.07201904 52.29101747 C113.06085689 59.2364925 113.0553472 66.18196835 113.05032361 73.12745011 C113.03985996 87.41830966 113.02226115 101.7091542 113 116 C112.67 116 112.34 116 112 116 C111.67 78.38 111.34 40.76 111 2 C56.055 2.495 56.055 2.495 0 3 C0 2.01 0 1.02 0 0 Z " fill="#063505" transform="translate(44,335)"/>
<path d="M0 0 C0.86825912 0.00222061 1.73651825 0.00444122 2.63108826 0.00672913 C3.61202957 0.00680466 4.59297089 0.00688019 5.6036377 0.00695801 C6.6702916 0.01211929 7.7369455 0.01728058 8.83592224 0.02259827 C10.46520912 0.02472069 10.46520912 0.02472069 12.12741089 0.02688599 C15.61230674 0.03250403 19.09713941 0.04505959 22.58201599 0.05775452 C24.93813486 0.06276719 27.29425473 0.0673305 29.65037537 0.07142639 C35.44011063 0.08247933 41.2298088 0.09923501 47.01951599 0.12025452 C46.68951599 0.78025452 46.35951599 1.44025452 46.01951599 2.12025452 C30.50951599 2.12025452 14.99951599 2.12025452 -0.98048401 2.12025452 C-0.48548401 16.47525452 -0.48548401 16.47525452 0.01951599 31.12025452 C-2.78211427 26.91780912 -2.12538113 24.11920517 -1.98048401 19.12025452 C-6.93048401 19.12025452 -11.88048401 19.12025452 -16.98048401 19.12025452 C-16.98048401 24.40025452 -16.98048401 29.68025452 -16.98048401 35.12025452 C-22.26048401 35.12025452 -27.54048401 35.12025452 -32.98048401 35.12025452 C-32.98048401 40.07025452 -32.98048401 45.02025452 -32.98048401 50.12025452 C-28.03048401 50.12025452 -23.08048401 50.12025452 -17.98048401 50.12025452 C-18.31048401 50.78025452 -18.64048401 51.44025452 -18.98048401 52.12025452 C-23.60048401 52.12025452 -28.22048401 52.12025452 -32.98048401 52.12025452 C-32.98048401 61.69025452 -32.98048401 71.26025452 -32.98048401 81.12025452 C-33.31048401 81.12025452 -33.64048401 81.12025452 -33.98048401 81.12025452 C-33.98048401 71.22025452 -33.98048401 61.32025452 -33.98048401 51.12025452 C-35.63048401 51.12025452 -37.28048401 51.12025452 -38.98048401 51.12025452 C-37.00048401 50.62525452 -37.00048401 50.62525452 -34.98048401 50.12025452 C-34.99208557 48.97685608 -35.00368713 47.83345764 -35.01564026 46.65541077 C-35.02501689 45.16452697 -35.03411722 43.67364143 -35.04298401 42.18275452 C-35.05136292 41.42800842 -35.05974182 40.67326233 -35.06837463 39.89564514 C-35.07700842 37.97031138 -35.03272734 36.04489871 -34.98048401 34.12025452 C-33.98048401 33.12025452 -33.98048401 33.12025452 -30.38282776 33.02259827 C-28.89451534 33.02927231 -27.40621969 33.04123269 -25.91798401 33.05775452 C-24.78006409 33.06452209 -24.78006409 33.06452209 -23.61915588 33.07142639 C-21.7395653 33.08324772 -19.86001502 33.10118374 -17.98048401 33.12025452 C-18.06427307 32.10447327 -18.14806213 31.08869202 -18.23439026 30.04212952 C-18.87680181 21.60546707 -19.01857189 13.55272226 -17.98048401 5.12025452 C-17.65048401 5.12025452 -17.32048401 5.12025452 -16.98048401 5.12025452 C-16.98048401 9.08025452 -16.98048401 13.04025452 -16.98048401 17.12025452 C-12.36048401 17.12025452 -7.74048401 17.12025452 -2.98048401 17.12025452 C-2.99208557 15.97685608 -3.00368713 14.83345764 -3.01564026 13.65541077 C-3.02501689 12.16452697 -3.03411722 10.67364143 -3.04298401 9.18275452 C-3.05136292 8.42800842 -3.05974182 7.67326233 -3.06837463 6.89564514 C-3.07700842 4.97031138 -3.03272734 3.04489871 -2.98048401 1.12025452 C-1.98048401 0.12025452 -1.98048401 0.12025452 0 0 Z " fill="#101410" transform="translate(404.98048400878906,170.87974548339844)"/>
<path d="M0 0 C0.66 0 1.32 0 2 0 C2 26.07 2 52.14 2 79 C27.08 79 52.16 79 78 79 C78 79.66 78 80.32 78 81 C52.26 81 26.52 81 0 81 C0 54.27 0 27.54 0 0 Z " fill="#0E210B" transform="translate(355,58)"/>
<path d="M0 0 C26.07 0 52.14 0 79 0 C79.04125 12.82875 79.0825 25.6575 79.125 38.875 C79.14320801 42.92894043 79.16141602 46.98288086 79.18017578 51.15966797 C79.18920898 56.10180664 79.18920898 56.10180664 79.19088745 58.41384888 C79.19396298 60.03210549 79.20100605 61.65035747 79.21115112 63.26858521 C79.2257348 65.71673574 79.22781389 68.16460568 79.22705078 70.61279297 C79.234247 71.33632902 79.24144321 72.05986507 79.2488575 72.80532646 C79.22805267 77.77194733 79.22805267 77.77194733 77 80 C77 54.26 77 28.52 77 2 C51.92 2 26.84 2 1 2 C0.67 1.34 0.34 0.68 0 0 Z " fill="#131A14" transform="translate(356,57)"/>
<path d="M0 0 C0.66 0 1.32 0 2 0 C2 4.95 2 9.9 2 15 C7.28 15 12.56 15 18 15 C18 31.17 18 47.34 18 64 C34.17 64 50.34 64 67 64 C67 64.33 67 64.66 67 65 C50.5 65 34 65 17 65 C17 49.16 17 33.32 17 17 C12.05 17 7.1 17 2 17 C2 32.84 2 48.68 2 65 C-19.78 65 -41.56 65 -64 65 C-64 64.67 -64 64.34 -64 64 C-42.55 64 -21.1 64 1 64 C1 48.49 1 32.98 1 17 C-7.415 17.495 -7.415 17.495 -16 18 C-16 17.01 -16 16.02 -16 15 C-10.72 15 -5.44 15 0 15 C0 10.05 0 5.1 0 0 Z " fill="#111210" transform="translate(287,387)"/>
<path d="M0 0 C0.33 0 0.66 0 1 0 C1 4.95 1 9.9 1 15 C3.21460938 14.97679687 5.42921875 14.95359375 7.7109375 14.9296875 C9.85220771 14.91409686 11.99347164 14.9019488 14.13476562 14.89013672 C15.6247032 14.88006957 17.11462097 14.86641482 18.60449219 14.84912109 C20.74419028 14.82490347 22.88362753 14.81352436 25.0234375 14.8046875 C26.31169434 14.79421387 27.59995117 14.78374023 28.92724609 14.77294922 C32 15 32 15 34 17 C28.72 17 23.44 17 18 17 C18 21.62 18 26.24 18 31 C23.61 31 29.22 31 35 31 C35.02261266 40.80554423 35.04095082 50.61107108 35.05181217 60.41663551 C35.05702566 64.96998693 35.06409545 69.52331955 35.07543945 74.07666016 C35.08632285 78.47274332 35.0922884 82.86880842 35.09487724 87.26490402 C35.09672166 88.94018208 35.10032334 90.61545917 35.10573006 92.29072952 C35.11301286 94.64126962 35.11398789 96.99173555 35.11352539 99.34228516 C35.11712067 100.03136963 35.12071594 100.7204541 35.12442017 101.43041992 C35.11601647 105.39012919 34.75958984 109.11441213 34 113 C33.67 113 33.34 113 33 113 C33 86.6 33 60.2 33 33 C27.72 33 22.44 33 17 33 C14.52441188 28.04882376 16.20114524 21.24327689 17 16 C15.86304688 16.0721875 14.72609375 16.144375 13.5546875 16.21875 C4.01799198 16.80015471 -5.44235215 17.13829394 -15 17 C-15 16.34 -15 15.68 -15 15 C-10.05 15 -5.1 15 0 15 C0 10.05 0 5.1 0 0 Z " fill="#121611" transform="translate(288,42)"/>
<path d="M0 0 C6.96003447 -0.02526838 13.9200572 -0.04283222 20.88012695 -0.05493164 C23.24992312 -0.05997341 25.61971615 -0.06680665 27.98950195 -0.07543945 C31.38754039 -0.0875119 34.78553785 -0.09322971 38.18359375 -0.09765625 C39.25024765 -0.10281754 40.31690155 -0.10797882 41.4158783 -0.11329651 C42.88729027 -0.11340981 42.88729027 -0.11340981 44.38842773 -0.11352539 C45.25668686 -0.115746 46.12494598 -0.11796661 47.01951599 -0.12025452 C49 0 49 0 50 1 C50.09326716 2.56547048 50.11745582 4.13512772 50.11352539 5.70336914 C50.11344986 6.70433121 50.11337433 7.70529327 50.11329651 8.73658752 C50.10813522 9.8251152 50.10297394 10.91364288 50.09765625 12.03515625 C50.0962413 13.14354355 50.09482635 14.25193085 50.09336853 15.39390564 C50.08775033 18.95013069 50.07519475 22.50629383 50.0625 26.0625 C50.05748734 28.46679597 50.05292403 30.87109292 50.04882812 33.27539062 C50.0386239 39.18363706 50.01905205 45.09174885 50 51 C34.16 51 18.32 51 2 51 C2 50.67 2 50.34 2 50 C17.18 50 32.36 50 48 50 C48 34.16 48 18.32 48 2 C32.16 2 16.32 2 0 2 C0 1.34 0 0.68 0 0 Z " fill="#121411" transform="translate(75,73)"/>
<path d="M0 0 C0.33 0 0.66 0 1 0 C1 5.61 1 11.22 1 17 C-4.28 17 -9.56 17 -15 17 C-15 21.62 -15 26.24 -15 31 C-9.72 31 -4.44 31 1 31 C1 36.61 1 42.22 1 48 C5.29 48 9.58 48 14 48 C14 42.39 14 36.78 14 31 C18.95 31 23.9 31 29 31 C29 31.33 29 31.66 29 32 C27.20909747 32.19466332 25.41723495 32.38051213 23.625 32.5625 C22.12839844 32.71912109 22.12839844 32.71912109 20.6015625 32.87890625 C18 33 18 33 16 32 C16 37.28 16 42.56 16 48 C20.95 48 25.9 48 31 48 C31 48.33 31 48.66 31 49 C20.48621211 49.89802393 10.52078559 49.9104526 0 49 C0 43.72 0 38.44 0 33 C-4.95 33 -9.9 33 -15 33 C-15 34.98 -15 36.96 -15 39 C-15.33 39 -15.66 39 -16 39 C-16 37.02 -16 35.04 -16 33 C-20.29 33 -24.58 33 -29 33 C-29 32.67 -29 32.34 -29 32 C-25.04 31.67 -21.08 31.34 -17 31 C-16.67 26.38 -16.34 21.76 -16 17 C-22.93 16.505 -22.93 16.505 -30 16 C-30 15.67 -30 15.34 -30 15 C-25.38 15 -20.76 15 -16 15 C-16 13.02 -16 11.04 -16 9 C-15.67 9 -15.34 9 -15 9 C-14.67 10.65 -14.34 12.3 -14 14 C-7.07 14.495 -7.07 14.495 0 15 C0 10.05 0 5.1 0 0 Z " fill="#111710" transform="translate(124,239)"/>
<path d="M0 0 C0.86825912 0.00222061 1.73651825 0.00444122 2.63108826 0.00672913 C3.61202957 0.00680466 4.59297089 0.00688019 5.6036377 0.00695801 C6.6702916 0.01211929 7.7369455 0.01728058 8.83592224 0.02259827 C10.46520912 0.02472069 10.46520912 0.02472069 12.12741089 0.02688599 C15.61230674 0.03250403 19.09713941 0.04505959 22.58201599 0.05775452 C24.93813486 0.06276719 27.29425473 0.0673305 29.65037537 0.07142639 C35.44011063 0.08247933 41.2298088 0.09923501 47.01951599 0.12025452 C45.01951599 2.12025452 45.01951599 2.12025452 43.03266907 2.36076355 C41.81355331 2.35410172 41.81355331 2.35410172 40.56980896 2.3473053 C39.64900543 2.34715424 38.7282019 2.34700317 37.77949524 2.34684753 C36.78362396 2.33652496 35.78775269 2.32620239 34.76170349 2.31556702 C33.74351532 2.31273712 32.72532715 2.30990723 31.67628479 2.30699158 C28.41557699 2.29577222 25.15514115 2.27066448 21.89451599 2.24525452 C19.6874887 2.23522699 17.48045712 2.22610074 15.27342224 2.21791077 C9.85536027 2.19582719 4.43745756 2.16233247 -0.98048401 2.12025452 C-0.96888245 3.26365295 -0.95728088 4.40705139 -0.94532776 5.58509827 C-0.93595113 7.07598206 -0.9268508 8.56686761 -0.91798401 10.05775452 C-0.9096051 10.81250061 -0.9012262 11.5672467 -0.89259338 12.34486389 C-0.8839596 14.27019765 -0.92824068 16.19561033 -0.98048401 18.12025452 C-1.98048401 19.12025452 -1.98048401 19.12025452 -5.79689026 19.21791077 C-7.37895083 19.21123541 -8.9609956 19.19927327 -10.54298401 19.18275452 C-11.3492926 19.1782428 -12.1556012 19.17373108 -12.98634338 19.16908264 C-14.98442157 19.15725969 -16.98246184 19.13932366 -18.98048401 19.12025452 C-20.51314983 16.05492287 -20.08324872 12.8527118 -20.04298401 9.49525452 C-20.03847229 8.78884827 -20.03396057 8.08244202 -20.02931213 7.35462952 C-20.01752276 5.60980177 -19.99958725 3.86501752 -19.98048401 2.12025452 C-19.32048401 2.12025452 -18.66048401 2.12025452 -17.98048401 2.12025452 C-17.98048401 7.07025452 -17.98048401 12.02025452 -17.98048401 17.12025452 C-13.03048401 17.12025452 -8.08048401 17.12025452 -2.98048401 17.12025452 C-2.99208557 15.97685608 -3.00368713 14.83345764 -3.01564026 13.65541077 C-3.02501689 12.16452697 -3.03411722 10.67364143 -3.04298401 9.18275452 C-3.05136292 8.42800842 -3.05974182 7.67326233 -3.06837463 6.89564514 C-3.07700842 4.97031138 -3.03272734 3.04489871 -2.98048401 1.12025452 C-1.98048401 0.12025452 -1.98048401 0.12025452 0 0 Z " fill="#11150F" transform="translate(340.98048400878906,170.87974548339844)"/>
<path d="M0 0 C0.79719955 0.00222061 1.59439911 0.00444122 2.41575623 0.00672913 C3.31661453 0.00680466 4.21747284 0.00688019 5.14562988 0.00695801 C6.12478867 0.01211929 7.10394745 0.01728058 8.11277771 0.02259827 C9.11018478 0.02401321 10.10759186 0.02542816 11.13522339 0.02688599 C14.3348027 0.03250337 17.53431315 0.04505881 20.73387146 0.05775452 C22.89728191 0.06276728 25.06069345 0.06733057 27.22410583 0.07142639 C32.53988471 0.08247845 37.85562317 0.09923348 43.17137146 0.12025452 C42.84137146 0.78025452 42.51137146 1.44025452 42.17137146 2.12025452 C27.98137146 2.12025452 13.79137146 2.12025452 -0.82862854 2.12025452 C-0.82862854 17.96025452 -0.82862854 33.80025452 -0.82862854 50.12025452 C-1.81862854 50.61525452 -1.81862854 50.61525452 -2.82862854 51.12025452 C-2.85389641 44.01780452 -2.87146055 36.91536604 -2.88356018 29.81288147 C-2.88860203 27.39458279 -2.89543532 24.97628718 -2.90406799 22.55799866 C-2.91614011 19.09046168 -2.92185817 15.62296485 -2.92628479 12.15541077 C-2.93144608 11.06688309 -2.93660736 9.97835541 -2.94192505 8.85684204 C-2.94200058 7.85587997 -2.94207611 6.85491791 -2.94215393 5.82362366 C-2.94437454 4.93759964 -2.94659515 4.05157562 -2.94888306 3.13870239 C-2.79348066 0.53030442 -2.61327854 0.17185478 0 0 Z " fill="#121611" transform="translate(372.82862854003906,72.87974548339844)"/>
<path d="M0 0 C5.28 0 10.56 0 16 0 C16 0.33 16 0.66 16 1 C11.38 1 6.76 1 2 1 C2.12568359 2.57974609 2.12568359 2.57974609 2.25390625 4.19140625 C2.96364418 13.93128177 2.92037005 23.27239657 2 33 C5.63 33 9.26 33 13 33 C13 33.33 13 33.66 13 34 C9.04 34 5.08 34 1 34 C1.33 34.66 1.66 35.32 2 36 C2.13996069 40.66908861 2.04247285 45.32798622 2 50 C6.62 50 11.24 50 16 50 C16 50.33 16 50.66 16 51 C10.72 51 5.44 51 0 51 C0 40.11 0 29.22 0 18 C-8.91 18 -17.82 18 -27 18 C-27 17.67 -27 17.34 -27 17 C-17.95264987 15.85113014 -9.11106527 15.92768996 0 16 C0 10.72 0 5.44 0 0 Z " fill="#131A10" transform="translate(418,254)"/>
<path d="M0 0 C0.33 0 0.66 0 1 0 C1 4.95 1 9.9 1 15 C5.62 15 10.24 15 15 15 C15.33 14.01 15.66 13.02 16 12 C16.495 12.99 16.495 12.99 17 14 C20.63 14 24.26 14 28 14 C28.495 14.99 28.495 14.99 29 16 C25.04 16 21.08 16 17 16 C17.020625 17.340625 17.04125 18.68125 17.0625 20.0625 C17.06896884 24.15080689 16.68530907 27.97380919 16 32 C15.67 32 15.34 32 15 32 C15 27.05 15 22.1 15 17 C11.7825 17.0309375 11.7825 17.0309375 8.5 17.0625 C0.3049195 17.10013 -7.8303266 16.6011849 -16 16 C-15.67 14.68 -15.34 13.36 -15 12 C-15 12.66 -15 13.32 -15 14 C-10.38 14 -5.76 14 -1 14 C-1.020625 11.875625 -1.04125 9.75125 -1.0625 7.5625 C-1.08373783 5.37500389 -1.07258946 3.18639453 -1 1 C-0.67 0.67 -0.34 0.34 0 0 Z " fill="#0E120D" transform="translate(403,321)"/>
<path d="M0 0 C0 5.61 0 11.22 0 17 C5.28 17 10.56 17 16 17 C15.67 17.66 15.34 18.32 15 19 C10.05 18.67 5.1 18.34 0 18 C0 22.95 0 27.9 0 33 C-0.33 33 -0.66 33 -1 33 C-1 28.05 -1 23.1 -1 18 C-6.28 18 -11.56 18 -17 18 C-17.020625 15.380625 -17.04125 12.76125 -17.0625 10.0625 C-17.071604 9.2362915 -17.08070801 8.41008301 -17.09008789 7.55883789 C-17.09723945 5.70566241 -17.0502852 3.85250692 -17 2 C-15.01200062 0.01200062 -11.2323582 0.59041179 -8.5 0.4375 C-7.44619141 0.37272461 -7.44619141 0.37272461 -6.37109375 0.30664062 C-1.3188244 0 -1.3188244 0 0 0 Z M-16 2 C-15.67 6.62 -15.34 11.24 -15 16 C-10.38 16 -5.76 16 -1 16 C-1.144375 13.875625 -1.28875 11.75125 -1.4375 9.5625 C-1.51871094 8.36753906 -1.59992188 7.17257812 -1.68359375 5.94140625 C-1.67656114 3.11429756 -1.67656114 3.11429756 -3 2 C-5.18639453 1.92741054 -7.37500389 1.91626217 -9.5625 1.9375 C-12.7490625 1.9684375 -12.7490625 1.9684375 -16 2 Z " fill="#0F450C" transform="translate(156,287)"/>
<path d="M0 0 C0.33 0 0.66 0 1 0 C1 12.54 1 25.08 1 38 C5.62 38 10.24 38 15 38 C16 39 16 39 16.11352539 41.86743164 C16.10828857 43.11903076 16.10305176 44.37062988 16.09765625 45.66015625 C16.0962413 46.32462265 16.09482635 46.98908905 16.09336853 47.6736908 C16.08775518 49.80333899 16.07520054 51.93288339 16.0625 54.0625 C16.05748671 55.50325369 16.05292351 56.94400903 16.04882812 58.38476562 C16.03778145 61.92321102 16.02050792 65.46159539 16 69 C15.67 69 15.34 69 15 69 C15 59.43 15 49.86 15 40 C10.10846529 40.0395679 10.10846529 40.0395679 5.21704102 40.09008789 C3.47778283 40.09724913 1.73854696 40.05024702 0 40 C-1.84276509 38.15723491 -1.12874411 35.57036241 -1.13894653 33.11865234 C-1.1369223 32.29574707 -1.13489807 31.4728418 -1.1328125 30.625 C-1.13376923 29.78533691 -1.13472595 28.94567383 -1.13571167 28.08056641 C-1.13639348 26.30175705 -1.13453917 24.52294523 -1.13037109 22.74414062 C-1.12502283 20.01166224 -1.13031605 17.27934824 -1.13671875 14.546875 C-1.13605797 12.8229163 -1.13477681 11.09895771 -1.1328125 9.375 C-1.13483673 8.55209473 -1.13686096 7.72918945 -1.13894653 6.88134766 C-1.11495054 1.11495054 -1.11495054 1.11495054 0 0 Z " fill="#12350D" transform="translate(172,315)"/>
<path d="M0 0 C5.94 0 11.88 0 18 0 C18 11.22 18 22.44 18 34 C15.03 34 12.06 34 9 34 C9 33.67 9 33.34 9 33 C11.64 33 14.28 33 17 33 C17 22.44 17 11.88 17 1 C12.05 1 7.1 1 2 1 C2.01160156 2.14339844 2.02320313 3.28679687 2.03515625 4.46484375 C2.04453288 5.95572754 2.05363321 7.44661309 2.0625 8.9375 C2.07087891 9.69224609 2.07925781 10.44699219 2.08789062 11.22460938 C2.09652441 13.14994313 2.05224333 15.07535581 2 17 C1 18 1 18 -2.59765625 18.09765625 C-4.08596867 18.0909822 -5.57426432 18.07902183 -7.0625 18.0625 C-7.82111328 18.05798828 -8.57972656 18.05347656 -9.36132812 18.04882812 C-11.24091871 18.0370068 -13.12046899 18.01907078 -15 18 C-15.33 19.98 -15.66 21.96 -16 24 C-16.33 24 -16.66 24 -17 24 C-17.04241723 21.66705225 -17.04092937 19.33297433 -17 17 C-16 16 -16 16 -12.40234375 15.90234375 C-10.91402745 15.90808728 -9.42573704 15.92110109 -7.9375 15.9375 C-5.318125 15.958125 -2.69875 15.97875 0 16 C0 10.72 0 5.44 0 0 Z " fill="#0F170D" transform="translate(338,386)"/>
<path d="M0 0 C0.74886475 0.00523682 1.49772949 0.01047363 2.26928711 0.01586914 C3.07817383 0.0190918 3.88706055 0.02231445 4.72045898 0.02563477 C5.5705957 0.03401367 6.42073242 0.04239258 7.29663086 0.05102539 C8.15063477 0.05553711 9.00463867 0.06004883 9.88452148 0.06469727 C12.00108749 0.07652166 14.11761771 0.0944577 16.23413086 0.11352539 C16.23413086 5.72352539 16.23413086 11.33352539 16.23413086 17.11352539 C25.80413086 17.11352539 35.37413086 17.11352539 45.23413086 17.11352539 C45.23413086 17.77352539 45.23413086 18.43352539 45.23413086 19.11352539 C35.33413086 19.11352539 25.43413086 19.11352539 15.23413086 19.11352539 C15.23413086 13.50352539 15.23413086 7.89352539 15.23413086 2.11352539 C9.95413086 2.11352539 4.67413086 2.11352539 -0.76586914 2.11352539 C-0.76586914 6.73352539 -0.76586914 11.35352539 -0.76586914 16.11352539 C-1.09586914 16.11352539 -1.42586914 16.11352539 -1.76586914 16.11352539 C-1.9597601 13.63470409 -2.14627037 11.15571608 -2.32836914 8.67602539 C-2.38444336 7.96897461 -2.44051758 7.26192383 -2.49829102 6.53344727 C-2.62777907 4.72924702 -2.70108522 2.92120587 -2.76586914 1.11352539 C-1.76586914 0.11352539 -1.76586914 0.11352539 0 0 Z " fill="#121610" transform="translate(92.765869140625,170.886474609375)"/>
<path d="M0 0 C5.94 0 11.88 0 18 0 C18.020625 2.59875 18.04125 5.1975 18.0625 7.875 C18.071604 8.69210449 18.08070801 9.50920898 18.09008789 10.35107422 C18.11111111 15.77777778 18.11111111 15.77777778 17 18 C11.39 18 5.78 18 0 18 C0 12.06 0 6.12 0 0 Z M1 2 C1 6.62 1 11.24 1 16 C5.95 16 10.9 16 16 16 C16 11.38 16 6.76 16 2 C11.05 2 6.1 2 1 2 Z " fill="#121A10" transform="translate(288,287)"/>
<path d="M0 0 C0 0.99 0 1.98 0 3 C-4.95 3 -9.9 3 -15 3 C-15 7.95 -15 12.9 -15 18 C-10.05 18 -5.1 18 0 18 C0 18.66 0 19.32 0 20 C-2.64590014 20.02684679 -5.29153096 20.04676357 -7.9375 20.0625 C-8.69224609 20.07087891 -9.44699219 20.07925781 -10.22460938 20.08789062 C-12.14994313 20.09652441 -14.07535581 20.05224333 -16 20 C-17.81187842 18.18812158 -17.13234462 15.7302249 -17.13671875 13.32226562 C-17.13285156 12.57654297 -17.12898437 11.83082031 -17.125 11.0625 C-17.12886719 10.32064453 -17.13273438 9.57878906 -17.13671875 8.81445312 C-17.12663501 3.25327002 -17.12663501 3.25327002 -16 1 C-13.28553021 0.68758545 -10.66090639 0.48663408 -7.9375 0.375 C-7.17888672 0.33632812 -6.42027344 0.29765625 -5.63867188 0.2578125 C-3.75952805 0.16326438 -1.87979664 0.08053244 0 0 Z " fill="#121710" transform="translate(155,236)"/>
<path d="M0 0 C2 2 2 2 2.1953125 4.8203125 C2.13020833 7.88020833 2.06510417 10.94010417 2 14 C6.95 14.33 11.9 14.66 17 15 C17 15.33 17 15.66 17 16 C11.72 16 6.44 16 1 16 C1 26.23 1 36.46 1 47 C5.95 47 10.9 47 16 47 C16 47.33 16 47.66 16 48 C10.72 48 5.44 48 0 48 C-0.33 37.77 -0.66 27.54 -1 17 C-4.96 16.67 -8.92 16.34 -13 16 C-13 15.67 -13 15.34 -13 15 C-8.71 15 -4.42 15 0 15 C0 10.05 0 5.1 0 0 Z " fill="#111410" transform="translate(288,108)"/>
<path d="M0 0 C2.81288705 0.14019692 5.62516885 0.28687955 8.4375 0.4375 C9.23994141 0.47681641 10.04238281 0.51613281 10.86914062 0.55664062 C16.88671875 0.88671875 16.88671875 0.88671875 18 2 C18.07319621 4.69654854 18.09242537 7.36691458 18.0625 10.0625 C18.05798828 10.82111328 18.05347656 11.57972656 18.04882812 12.36132812 C18.0370068 14.24091871 18.01907078 16.12046899 18 18 C17.01 18 16.02 18 15 18 C15.33 13.05 15.66 8.1 16 3 C11.38 3 6.76 3 2 3 C2 7.62 2 12.24 2 17 C1.67 17 1.34 17 1 17 C0.16746044 11.27629051 -0.09705875 5.77843501 0 0 Z " fill="#111410" transform="translate(221,137)"/>
<path d="M0 0 C8 0 8 0 12 2 C8.7 2 5.4 2 2 2 C2 12.23 2 22.46 2 33 C2.66 33.33 3.32 33.66 4 34 C2.68 34 1.36 34 0 34 C0 22.78 0 11.56 0 0 Z " fill="#0C6C0A" transform="translate(255,254)"/>
<path d="M0 0 C5.61 0 11.22 0 17 0 C17 0.33 17 0.66 17 1 C12.05 1 7.1 1 2 1 C2 5.95 2 10.9 2 16 C7.28 16 12.56 16 18 16 C18 21.28 18 26.56 18 32 C17.67 32 17.34 32 17 32 C17 27.05 17 22.1 17 17 C15.85660156 17.08378906 14.71320313 17.16757812 13.53515625 17.25390625 C12.04428998 17.35704794 10.55340347 17.45989747 9.0625 17.5625 C8.30775391 17.61857422 7.55300781 17.67464844 6.77539062 17.73242188 C4.85254042 17.86176157 2.92610452 17.93516912 1 18 C0 17 0 17 -0.09765625 13.18359375 C-0.09191138 11.60152953 -0.07889593 10.01948969 -0.0625 8.4375 C-0.041875 5.653125 -0.02125 2.86875 0 0 Z " fill="#12180F" transform="translate(171,386)"/>
<path d="M0 0 C0 10.23 0 20.46 0 31 C-0.66 31.33 -1.32 31.66 -2 32 C-2 22.1 -2 12.2 -2 2 C-6.95 2 -11.9 2 -17 2 C-17 1.67 -17 1.34 -17 1 C-14.54171921 0.83252588 -12.08338135 0.6659856 -9.625 0.5 C-8.92632812 0.45230469 -8.22765625 0.40460938 -7.5078125 0.35546875 C-2.2265625 0 -2.2265625 0 0 0 Z " fill="#113B0C" transform="translate(61,238)"/>
<path d="M0 0 C1.99616554 1.99616554 1.40983427 5.81701963 1.5625 8.5625 C1.60568359 9.27341797 1.64886719 9.98433594 1.69335938 10.71679688 C1.79971777 12.47761912 1.90038846 14.2387832 2 16 C5.96 16.33 9.92 16.66 14 17 C14 17.33 14 17.66 14 18 C9.05 18 4.1 18 -1 18 C-1 12.72 -1 7.44 -1 2 C-5.95 2 -10.9 2 -16 2 C-16 1.67 -16 1.34 -16 1 C-10.69982429 -0.11582647 -5.39881588 -0.34568689 0 0 Z " fill="#12190F" transform="translate(272,90)"/>
<path d="M0 0 C1.71123047 -0.01836914 1.71123047 -0.01836914 3.45703125 -0.03710938 C4.55402344 -0.03904297 5.65101563 -0.04097656 6.78125 -0.04296875 C7.78220703 -0.04707764 8.78316406 -0.05118652 9.81445312 -0.05541992 C12.53855287 0.19098728 14.17443777 0.79209353 16.5 2.1875 C15.60692139 2.20731934 14.71384277 2.22713867 13.79370117 2.24755859 C10.47799292 2.32568698 7.16273838 2.41237971 3.84741211 2.50488281 C2.41292932 2.54314866 0.97835135 2.57800581 -0.45629883 2.609375 C-2.51938878 2.65507862 -4.58182495 2.71306193 -6.64453125 2.7734375 C-7.88565674 2.8048584 -9.12678223 2.8362793 -10.40551758 2.86865234 C-13.66636101 2.96149209 -13.66636101 2.96149209 -16.5 5.1875 C-16.5 3.8675 -16.5 2.5475 -16.5 1.1875 C-11.12569075 -0.41408889 -5.55735574 0.00313975 0 0 Z " fill="#0A7608" transform="translate(354.5,285.8125)"/>
<path d="M0 0 C4.95 0 9.9 0 15 0 C15.495 8.415 15.495 8.415 16 17 C10.39 17 4.78 17 -1 17 C-1 16.34 -1 15.68 -1 15 C3.95 15 8.9 15 14 15 C14 10.38 14 5.76 14 1 C9.38 1 4.76 1 0 1 C0 0.67 0 0.34 0 0 Z " fill="#0E300A" transform="translate(173,403)"/>
<path d="M0 0 C1.48831242 0.00667405 2.97660807 0.01863442 4.46484375 0.03515625 C5.22345703 0.03966797 5.98207031 0.04417969 6.76367188 0.04882812 C8.64326246 0.06064945 10.52281274 0.07858547 12.40234375 0.09765625 C12.40234375 0.75765625 12.40234375 1.41765625 12.40234375 2.09765625 C7.45234375 2.09765625 2.50234375 2.09765625 -2.59765625 2.09765625 C-2.59765625 6.71765625 -2.59765625 11.33765625 -2.59765625 16.09765625 C-3.25765625 16.42765625 -3.91765625 16.75765625 -4.59765625 17.09765625 C-4.62450304 14.45175611 -4.64441982 11.80612529 -4.66015625 9.16015625 C-4.66853516 8.40541016 -4.67691406 7.65066406 -4.68554688 6.87304688 C-4.69418066 4.94771312 -4.64989958 3.02230044 -4.59765625 1.09765625 C-3.59765625 0.09765625 -3.59765625 0.09765625 0 0 Z " fill="#121A0F" transform="translate(259.59765625,203.90234375)"/>
<path d="M0 0 C0.33 0 0.66 0 1 0 C1.33 1.65 1.66 3.3 2 5 C7.28 5 12.56 5 18 5 C17.67 9.95 17.34 14.9 17 20 C16.67 20 16.34 20 16 20 C16 15.71 16 11.42 16 7 C14.39318359 7.12568359 14.39318359 7.12568359 12.75390625 7.25390625 C11.35679134 7.35704896 9.95965476 7.45989843 8.5625 7.5625 C7.50192383 7.64661133 7.50192383 7.64661133 6.41992188 7.73242188 C4.61572163 7.86190993 2.80768048 7.93521608 1 8 C0 7 0 7 -0.0625 3.4375 C-0.041875 2.303125 -0.02125 1.16875 0 0 Z " fill="#0E4F0C" transform="translate(138,183)"/>
<path d="M0 0 C2.81256281 -0.02684312 5.62487241 -0.04676188 8.4375 -0.0625 C9.23994141 -0.07087891 10.04238281 -0.07925781 10.86914062 -0.08789062 C12.91295221 -0.0965143 14.95683902 -0.0522815 17 0 C18 1 18 1 18.09765625 2.84765625 C18.06510417 4.8984375 18.03255208 6.94921875 18 9 C16 6 16 6 16 2 C10.72 2 5.44 2 0 2 C-0.33 2.99 -0.66 3.98 -1 5 C-0.67 3.35 -0.34 1.7 0 0 Z " fill="#0B110A" transform="translate(339,335)"/>
<path d="M0 0 C2.45840605 -0.02691685 4.91651882 -0.04679802 7.375 -0.0625 C8.07367188 -0.07087891 8.77234375 -0.07925781 9.4921875 -0.08789062 C14.7734375 -0.11328125 14.7734375 -0.11328125 17 1 C17 4.3 17 7.6 17 11 C15 8 15 8 14 3 C9.05 3 4.1 3 -1 3 C-0.67 2.01 -0.34 1.02 0 0 Z " fill="#0D5D0A" transform="translate(306,39)"/>
<path d="M0 0 C0.33 0 0.66 0 1 0 C1.02684312 2.81256281 1.04676188 5.62487241 1.0625 8.4375 C1.07087891 9.23994141 1.07925781 10.04238281 1.08789062 10.86914062 C1.0965143 12.91295221 1.0522815 14.95683902 1 17 C0 18 0 18 -2.50390625 18.09765625 C-3.51324219 18.08605469 -4.52257812 18.07445312 -5.5625 18.0625 C-6.57441406 18.05347656 -7.58632812 18.04445313 -8.62890625 18.03515625 C-9.41136719 18.02355469 -10.19382813 18.01195312 -11 18 C-11 17.67 -11 17.34 -11 17 C-8.03 16.67 -5.06 16.34 -2 16 C-1.93941406 15.01257813 -1.87882813 14.02515625 -1.81640625 13.0078125 C-1.73261719 11.72648437 -1.64882812 10.44515625 -1.5625 9.125 C-1.48128906 7.84882813 -1.40007812 6.57265625 -1.31640625 5.2578125 C-1 2 -1 2 0 0 Z " fill="#0D630A" transform="translate(155,254)"/>
<path d="M0 0 C0.33 0.99 0.66 1.98 1 3 C-4.28 3 -9.56 3 -15 3 C-15.33 5.31 -15.66 7.62 -16 10 C-16.33 10 -16.66 10 -17 10 C-17 7.03 -17 4.06 -17 1 C-15.85660156 1.01160156 -14.71320313 1.02320313 -13.53515625 1.03515625 C-12.04427246 1.04453288 -10.55338691 1.05363321 -9.0625 1.0625 C-8.30775391 1.07087891 -7.55300781 1.07925781 -6.77539062 1.08789062 C-4.85005687 1.09652441 -2.92464419 1.05224333 -1 1 C-0.67 0.67 -0.34 0.34 0 0 Z " fill="#0D5F0A" transform="translate(238,252)"/>
<path d="M0 0 C0.66 0 1.32 0 2 0 C2.02685095 2.47923801 2.04676547 4.9581884 2.0625 7.4375 C2.07087891 8.14455078 2.07925781 8.85160156 2.08789062 9.58007812 C2.09653588 11.38693559 2.05220011 13.19387603 2 15 C1.67 15.33 1.34 15.66 1 16 C-0.52519276 15.91062197 -2.04681929 15.75462854 -3.5625 15.5625 C-4.38878906 15.46066406 -5.21507812 15.35882813 -6.06640625 15.25390625 C-6.70449219 15.17011719 -7.34257812 15.08632812 -8 15 C-8 14.67 -8 14.34 -8 14 C-5.36 14 -2.72 14 0 14 C0 9.38 0 4.76 0 0 Z " fill="#121710" transform="translate(271,240)"/>
<path d="M0 0 C2.31309705 0.11341637 4.62550185 0.24103807 6.9375 0.375 C8.86916016 0.47941406 8.86916016 0.47941406 10.83984375 0.5859375 C12.40412109 0.79089844 12.40412109 0.79089844 14 1 C14.33 1.66 14.66 2.32 15 3 C10.38 3.33 5.76 3.66 1 4 C1 5.98 1 7.96 1 10 C0.67 10 0.34 10 0 10 C0 7.69 0 5.38 0 3 C-0.66 2.67 -1.32 2.34 -2 2 C-1.34 2 -0.68 2 0 2 C0 1.34 0 0.68 0 0 Z " fill="#0D630A" transform="translate(371,252)"/>
<path d="M0 0 C0.66 0 1.32 0 2 0 C2 3.3 2 6.6 2 10 C3.98 10.66 5.96 11.32 8 12 C8 12.33 8 12.66 8 13 C4.7 13 1.4 13 -2 13 C-1.67 12.34 -1.34 11.68 -1 11 C-0.95509079 9.31309769 -0.96116137 7.624553 -1 5.9375 C-1.03777102 4.29210014 -1.04642479 2.64517844 -1 1 C-0.67 0.67 -0.34 0.34 0 0 Z " fill="#0F580B" transform="translate(238,308)"/>
<path d="M0 0 C0.33 0 0.66 0 1 0 C1 4.62 1 9.24 1 14 C2.98 14 4.96 14 7 14 C7 14.33 7 14.66 7 15 C4.6739143 15.38063221 2.33944736 15.71269945 0 16 C-1 15 -1 15 -1.1328125 11.875 C-1.13023437 10.59625 -1.12765625 9.3175 -1.125 8 C-1.12757813 6.72125 -1.13015625 5.4425 -1.1328125 4.125 C-1 1 -1 1 0 0 Z " fill="#0C7609" transform="translate(255,76)"/>
<path d="M0 0 C0.33 0 0.66 0 1 0 C1 5.28 1 10.56 1 16 C-0.65 16.33 -2.3 16.66 -4 17 C-3.67 16.34 -3.34 15.68 -3 15 C-2.34 15 -1.68 15 -1 15 C-1.01160156 14.16855469 -1.02320313 13.33710938 -1.03515625 12.48046875 C-1.04869141 10.85044922 -1.04869141 10.85044922 -1.0625 9.1875 C-1.07410156 8.10855469 -1.08570313 7.02960938 -1.09765625 5.91796875 C-1 3 -1 3 0 0 Z " fill="#0B5D09" transform="translate(256,173)"/>
<path d="M0 0 C1.05832031 -0.01417969 2.11664063 -0.02835937 3.20703125 -0.04296875 C6.1875 0.1875 6.1875 0.1875 10.1875 2.1875 C5.2375 2.1875 0.2875 2.1875 -4.8125 2.1875 C-5.1425 2.8475 -5.4725 3.5075 -5.8125 4.1875 C-6.1425 3.1975 -6.4725 2.2075 -6.8125 1.1875 C-5.02188728 -0.60311272 -2.41572258 0.01460534 0 0 Z " fill="#0C1E0B" transform="translate(293.8125,401.8125)"/>
<path d="M0 0 C0.33 0 0.66 0 1 0 C1 4.62 1 9.24 1 14 C2.65 14 4.3 14 6 14 C6 14.66 6 15.32 6 16 C4.00045254 16.04254356 1.99958364 16.04080783 0 16 C-0.33 15.67 -0.66 15.34 -1 15 C-0.90913549 12.46458702 -0.7629055 9.96445216 -0.5625 7.4375 C-0.51029297 6.72658203 -0.45808594 6.01566406 -0.40429688 5.28320312 C-0.27425893 3.52178001 -0.13773103 1.76083827 0 0 Z " fill="#0A6308" transform="translate(173,256)"/>
<path d="M0 0 C2 2 2 2 2.23046875 4.3125 C2.21628906 5.199375 2.20210938 6.08625 2.1875 7 C2.18105469 7.886875 2.17460938 8.77375 2.16796875 9.6875 C2 12 2 12 1 14 C0.34 14 -0.32 14 -1 14 C-0.67 9.38 -0.34 4.76 0 0 Z " fill="#0C6D0A" transform="translate(92,307)"/>
<path d="M0 0 C2.05078125 0.03255208 4.1015625 0.06510417 6.15234375 0.09765625 C6.15234375 1.08765625 6.15234375 2.07765625 6.15234375 3.09765625 C2.77734375 3.22265625 2.77734375 3.22265625 -0.84765625 3.09765625 C-1.50765625 2.43765625 -2.16765625 1.77765625 -2.84765625 1.09765625 C-1.84765625 0.09765625 -1.84765625 0.09765625 0 0 Z " fill="#0D6D0A" transform="translate(214.84765625,136.90234375)"/>
</svg>
